<?xml version="1.0" encoding="utf-8"?>
<!-- Generator: Adobe Illustrator 22.1.0, SVG Export Plug-In . SVG Version: 6.00 Build 0)  -->
<svg version="1.1" id="Layer_1" xmlns="http://www.w3.org/2000/svg" xmlns:xlink="http://www.w3.org/1999/xlink" x="0px" y="0px"
	 viewBox="0 0 2022 1638" style="enable-background:new 0 0 2022 1638;" xml:space="preserve">
<g>
	<path d="M80.4,73.9c0-4-3.2-7.3-7.2-7.4c-4.1-0.1-7.4,3.2-7.5,7.2c0,3.9,3.3,7.3,7.2,7.4C77,81.3,80.4,78,80.4,73.9z"/>
	<path d="M919.5,926.1c0,4,3.2,7.3,7.2,7.4c4.1,0.1,7.4-3.2,7.5-7.2c0-3.9-3.3-7.3-7.2-7.4C922.9,918.7,919.6,922,919.5,926.1z"/>
	<path d="M73.3,933.4c4-0.1,7.2-3.4,7.2-7.4c0-4.1-3.4-7.3-7.5-7.3c-3.9,0.1-7.2,3.5-7.2,7.4C65.8,930.2,69.2,933.5,73.3,933.4z"/>
	<path d="M926.7,66.6c-4,0.1-7.2,3.4-7.2,7.4c0,4.1,3.4,7.3,7.5,7.3c3.9-0.1,7.2-3.5,7.2-7.4C934.1,69.8,930.7,66.5,926.7,66.6z"/>
	<path d="M0,0v1000h1000V0H0z M915.6,46.8c2.6-3.1,5.6-5.7,9.3-7.4c2.1-1,3.7,0.1,4.8,2.3c0.8-0.6,1.4-1.2,2.2-1.6
		c1.8-0.9,3.7-2,5.6-2.3c3-0.5,5.6,1.6,6.2,4.7c0.1,0.7,0.2,1.4,0.4,2.4c0.9-0.6,1.7-1.2,2.5-1.7c3.2-2,7-1.7,9.8,1
		c2.8,2.8,3.2,6.8,1.2,10c-0.5,0.8-1,1.6-1.7,2.5c1,0.2,1.7,0.3,2.4,0.4c3.1,0.6,5.3,3.1,4.7,6.2c-0.3,1.9-1.4,3.8-2.3,5.6
		c-0.4,0.8-1,1.4-1.6,2.2c2.1,1.1,3.3,2.7,2.3,4.8c-1.7,3.7-4.3,6.7-7.4,9.3c-0.9,0.8-1.7,0.3-1.7-0.9c0.1-1,0.4-2.1,0.7-3.1
		c3-9.8,0-20-6.8-26.6c-6.6-6.9-16.8-9.8-26.6-6.8c-1,0.3-2,0.6-3.1,0.7C915.3,48.5,914.8,47.7,915.6,46.8z M932.1,141.4
		c-1.1-0.6-2.1-1.5-3.1-2.2c0.2-0.3,0.4-0.5,0.6-0.8c0.3-0.2,0.6-0.4,0.9-0.6c3.4-2.3,7.4-2.6,11.2-3.4c5.3-1,9.5-3.4,11.3-8.8
		c0.6-1.9,0.8-3.9,1.2-5.9c0.2-0.9,0.3-1.8,0.5-2.8c0.2,0,0.3,0,0.5,0c0.1,0.5,0.3,1,0.3,1.5c-0.2,3.1,0,6.2-0.8,9.1
		c-3,10.6-10.1,17.1-20.6,20.1c-5.2,1.5-9.9,0.5-14.1-2.7c-1.4-1-2.4-2.4-3.7-3.6c0.1-0.2,0.2-0.4,0.3-0.5c0.6-0.1,1.2-0.2,1.7-0.2
		c3.7-0.2,7,0.6,10,2.8c2.6,1.9,5.3,1.5,7.1-0.8C934.3,142.2,933.1,142,932.1,141.4z M901.8,119.2c-1.8-4.2,1.3-10.6,5.5-11.8
		c1.2-0.4,2.4-1.2,3.4-2.1c1.1-1,1.5-2.6,0.6-3.9c-0.5-0.8-1.7-1.4-2.7-1.5c-1.6-0.2-2.9,1.1-3.5,3c-1.5,5-2.6,5.7-7.8,5.1
		c-0.3,0-0.7,0.1-1.2,0.1c0.3,1.2,0.7,2.2,1,3.3c1.4,5.2-0.8,10.2-5.3,12.2c-2.5,1.1-3.4,0.6-3.2-2.1c0.2-2.3,1-4.5,1.5-6.8
		c0.1-0.4-0.2-0.9-0.3-1.4c-0.4,0.3-1.1,0.5-1.3,0.9c-0.4,0.7-0.4,1.5-0.6,2.3c-1.6,6.8-6.8,11.4-13.7,12.2
		c-1.5,0.2-2.4-0.7-2.1-2.2c1-5.1,4-12.5,12.1-13.7c0.7-0.1,1.4-0.2,2-0.5c0.6-0.3,0.9-0.9,1.4-1.3c-0.6-0.1-1.3-0.3-1.9-0.2
		c-2.2,0.4-4.4,1.2-6.6,1.3c-2.4,0.2-2.8-0.7-1.9-3c2-4.8,7.4-7.1,12.8-5.5c0.9,0.3,1.8,0.5,3,0.9c-0.1-1.2-0.2-2.1-0.2-3
		c-0.1-3.6,0.9-5,4.4-5.9c0.7-0.2,1.4-0.4,2.1-0.7c1.6-0.9,2.2-3.1,1.3-4.6c-0.8-1.4-3-1.9-4.5-0.7c-0.9,0.7-1.7,1.8-2.2,2.9
		c-2.9,6.1-6.6,7.9-13.1,6.1c-2.9-0.8-5.7-0.8-8.1,1.4c-0.5,0.5-1.4,0.5-2.1,0.7c-0.1-0.7-0.4-1.4-0.2-2.1c0.6-3.9,2.8-6.2,6.7-7.1
		c1-0.2,1.9-0.7,2.8-1c0-0.2-0.1-0.4-0.1-0.7c-0.9-0.4-1.9-0.7-2.8-1.1c-4.9-2-7.5-9.1-4.9-13.3c1-1.5,1.7-1.6,2.5-0.2
		c3,5.9,7.5,9,14.3,7.8c0.3-0.1,0.6,0,0.9-0.1c4.2-0.4,8.3,0.2,12.3,1.6c2.8,0.9,4.5,2.9,5.4,5.8c0.4,1.2,1.6,2.6,2.6,2.9
		c3.9,1,5.6,3.6,6.6,7.1c1.2,4.4,1.3,8.9,0.9,13.3c-0.4,4.2,0.7,7.7,4.2,10.1c1.5,1.1,3.1,2.2,4.8,3.3c-0.7,1.7-2.1,2.1-3.5,2.4
		c-5.1,1-9.5-1.7-11.6-7c-0.2-0.5-0.7-0.9-1-1.4c-0.4,0.5-0.8,1-1.1,1.5c-0.2,0.3-0.1,0.7-0.2,1.1c-0.8,3.9-3.5,6.3-7.5,6.8
		c-0.6,0.1-1.2-0.3-1.9-0.4c0.2-0.6,0.2-1.3,0.6-1.6C903.1,125.7,903.2,122.4,901.8,119.2z M895.8,132.3c-0.1,0.9-1,1.6-1.3,2.2
		c-1.9-0.1-2.7-0.8-2.7-2.1c0-1.2,0.7-2,1.9-2C895,130.3,896,131.1,895.8,132.3z M868.3,109c-1.3,0-2.1-0.7-2.2-1.9
		c-0.1-1.3,0.7-2.2,2-2.4c1.3,0.1,2.3,0.7,2.3,2.1C870.5,108.1,869.7,109,868.3,109z M870.4,132.3c-0.2,0.8-1.1,1.8-1.9,2
		c-1.2,0.3-2-0.6-2.2-1.9c0.1-1.3,0.7-2.1,2-2.1C869.7,130.3,870.6,131.1,870.4,132.3z M857.6,73c2.5,3.4,2.8,7.2,2.2,11.4
		c-5.2-2.7-8.4-9.8-7.3-15.7c2.5-13.2,13.4-24.1,29.1-23.4c0.7,0,1.3,0.2,2,0.3c0,0.2,0,0.4,0,0.6c-1.3,0.2-2.6,0.4-3.9,0.5
		c-6.8,0.7-11.2,4-12.9,10c-0.5,1.8-0.9,3.7-1.2,5.6c-0.4,3.3-1.5,6.3-3.5,9c-2.9-0.9-3.2-3.8-4.4-6.1c-0.4,0.4-0.6,0.6-0.7,0.8
		C855.5,68.3,855.9,70.7,857.6,73z M916.5,73.9c0-5.8,4.5-10.3,10.2-10.4c5.8,0,10.5,4.6,10.5,10.3c0,5.8-4.7,10.4-10.5,10.4
		C921.1,84.2,916.5,79.6,916.5,73.9z M936.2,83.1c1.2-0.2,2.1,0.6,2.1,1.9s-0.8,2.2-2,2.1c-0.9-0.1-1.6-1-2.4-1.5c0-0.3,0-0.6,0-0.9
		C934.7,84.2,935.4,83.3,936.2,83.1z M936.5,62.2c0-1.3,0.9-2.2,2.1-2c0.9,0.1,1.6,1,2.4,1.6c0,0.3,0,0.6,0,0.9
		c-0.8,0.6-1.6,1.5-2.4,1.6C937.3,64.4,936.5,63.5,936.5,62.2z M915.5,62.3c1.3,0,2.2,0.7,2.2,2.1s-0.8,2.1-2.2,2.2
		c-1.3-0.2-2.1-0.9-2.1-2.2C913.5,63.1,914.3,62.3,915.5,62.3z M915.4,83.2c1.3,0,2.2,0.8,2.1,2c-0.1,0.9-1,1.6-1.6,2.4
		c-0.3,0-0.6,0-0.9,0c-0.6-0.8-1.5-1.6-1.6-2.4C913.3,84.1,914.1,83.2,915.4,83.2z M811.9,31.7c0.3-0.6,0.9-1.2,1.5-2
		c0.7,1.7,1,3.2,1.7,4.4c2.6,4.5,7,5.5,11.7,5.5c5.6-0.1,11-1.5,16.4-3.3c5.9-2,11.8-4.3,17.8-6c4.3-1.3,8.9-1.9,13.3-2.8
		c0.5-0.1,1.1-0.3,1.6-0.4c2.2,0,4.4,0,6.6,0c2.7,0.6,5.5,1.2,8.2,1.8c8.1,1.7,14.1,6.3,18.7,13c5.7,8.3,4,20.9-3.8,27.2
		c-5.3,4.3-13.9,4.8-19.7,1.2c-6.5-4.1-7.7-14.8-2.3-20.2c2.9-2.9,7.1-3.7,10.9-2.1c4.1,1.7,6.4,5.3,6.2,9.8c0,0.6-0.1,1.3-0.1,1.9
		c0.2,0.1,0.5,0.1,0.7,0.2c0.3-1.1,0.9-2.3,1-3.4c0.3-5.3-3.9-11.5-9.3-13.7c-7.4-3.1-14.8-2.9-22.2,0.3
		c-11.9,5.3-20.6,13.7-25.2,26c-2.6,7-2.2,14.1-0.9,21.3c1.8,10.1,5,19.7,10.3,28.6c2.9,4.9,5.7,10,8.2,15.1c0,0-5.3-0.7-6.8-3.1
		s-8.7-15.1-12.7-22.9c-3.4-6.6-5.2-13.7-5.6-21c-0.1-2,0.3-4,1-5.9c0.9-2.7,1.2-5.2-0.3-7.8c-1-1.8-0.7-3.7-0.2-5.5
		c1.8-6.6,5.7-11.9,10-17c2.1-2.5,4.4-4.7,6.8-6.9c1.8-1.6,3.9-2.4,6.5-1.9c0.8,0.1,1.8,0,2.5-0.4c6.2-3,12.3-6.4,19.4-6.9
		c0-0.2,0-0.3,0-0.5c-1-0.3-2-0.8-3-0.9c-2.7-0.2-5.5-0.5-8.2-0.4c-2.7,0-5,1.3-6.6,3.5c-0.4,0.5-0.7,1.1-1.2,1.4
		c-0.7,0.5-1.7,1.2-2.4,1.1c-0.6-0.1-1-1.3-1.6-2.3c-1.3,0.5-3,1.1-4.6,1.8c-5.4,2.5-10.2,5.6-14,10.3c-2.8,3.4-4.8,7.2-3.4,11.8
		c0,0.1,0,0.2,0,0.4c0,0.1-0.1,0.2-0.2,0.3c-2.3-0.2-2.7-0.9-3.4-4.8c-0.6,0.9-1.1,1.4-1.4,2.1c-1.5,4.4-2,8.9,0.1,13.3
		c0.5,1.1,1,2.1,1.4,3.2c0.8,2.2,0.2,3-2.1,2.7c-0.3,0-0.7-0.1-1.4-0.2c0.4,0.8,0.5,1.4,0.9,1.8c1.5,1.5,1.8,3.3,1.2,5.3
		c-0.1,0.3,0,0.6-0.1,0.9c-0.3,0.9-0.6,1.8-0.9,2.6c-0.9-0.4-1.9-0.7-2.7-1.3c-2.5-2.1-4-4.7-4.5-8c-0.2-1.1-0.5-2.1-0.7-3.2
		c-0.2,0-0.4,0-0.6,0c-0.1,2.1-0.4,4.2-0.3,6.3c0.3,4.4,1.9,8.3,5,11.4c2.9,3,4.9,6.3,4.3,10.7c-0.2,1.4,0.6,2.2,2,2.2
		c0.7,0,1.3,0.1,2,0.1c0.1,0.2,0.1,0.4,0.2,0.6c-0.9,0.4-1.8,1-2.7,1.2c-2.7,0.5-5-0.6-7.1-2.4c-1.6-1.4-3.2-2.8-4.7-4.1
		c-0.3,1.7,0.5,3.5,1.6,5.1c2.7,4.2,6.4,6.8,11.5,7.4c1.9,0.2,3.7,1.5,5.6,2.2c0,0.3,0.1,0.6,0.1,0.8c-1.6,1-3.1,2.1-5.1,3.4
		c0.9,0.3,1.7,0.9,2.6,1c1.7,0.2,3.2,0.5,4.3,2.1c0.4,0.6,1.8,0.6,3.5,1c-1.3,0.8-2.1,1.6-3.1,1.9c-4,1.2-7.7,0.3-11-2
		c-5.1-3.6-8.8-8.4-11.2-14.1c-3.8-8.9-4.3-18.3-3.5-27.9c0.7-9.1,4-17.2,9.8-24.2c1.4-1.6,3-3.1,4.6-4.5c0.5-0.4,1.2-0.6,1.8-0.9
		c-0.2-0.2-0.5-0.3-0.7-0.5c-0.9-1.1-1.7-2.3-2.7-3.3c-0.4-0.4-1.3-0.5-2-0.6c-2.3-0.2-4.7-0.2-7-0.6c-2.9-0.6-4.8-2.3-5.6-5.4
		c-0.3-1.1-1.5-2.1-2.5-2.9C811.5,36.9,810.6,34.3,811.9,31.7z M856.9,153.6c3,1.1,4.3,5.8,2.4,8.4c-0.5,0.7-1.4,1.5-1.9,0.2
		c-1.4-3.3-4.1-3.5-7-3.2c-1,0.1-2.1,0.3-3.1,0.5c-3.2,0.8-2.8-3.6-5.5-3.7c-0.3,0-0.7-1.1-0.7-1.7c0-0.9,0.3-1.8,0.4-2.7
		c0.8-4.2-0.1-6.3-3.6-8.4c-0.1-0.1-0.1-0.2-0.2-0.3c1.1-1.9,2.6-2.4,5.4-1.9c4.3,0.8,4.5,4.2,4.6,8c0.6-0.8,0.9-1.2,1.2-1.6
		c1.3-2.3,3.4-3.1,5.9-3.1c1.3,0,2,0.5,2,1.8c0,2.4-0.8,4.4-2.9,5.8c-0.5,0.3-1,0.6-1.6,1.1C854.1,153,855.6,153.1,856.9,153.6z
		 M864.2,154.5c-0.1-1.7-0.2-3.6-0.4-5.5c-0.4-2.2-0.8-4.5-1.3-6.8c0,0,3.6,0.9,4.4,2.5c0.1,0.2,0.2,0.4,0.3,0.8
		c0.1,0.3,0.2,0.6,0.2,0.9c0.7,3.2,1.3,10,0.7,15.1c-0.4,4.7-2.1,9-5.3,12.7c-2.6,3.1-5.9,4.7-9.8,4.8c-0.2,0-0.5,0-0.7,0
		c-0.2,0-0.5,0-0.7,0c-0.1,0-0.2,0-0.3,0s-0.2,0-0.2,0c-1-0.1-2-0.3-2.8-0.7c-0.1,0-0.2-0.1-0.4-0.1c-3.8-1.4-5.8-5.5-4.4-9.1
		c0.8-2.1,2.2-3,4.5-2.7c0.4,0,0.8,0.1,1.2,0.2c0.7,0.2,1.4,0.4,2,0.8c1.3,0.8,2.2,1.8,2.2,3.4c0,1.6-1.3,1.9-2.5,2.3
		c-0.1,0-0.1,0.2-0.5,0.6c0.9,0.3,1.6,0.6,2.4,0.7c0.5,0.1,1,0.1,1.4,0c0.2,0,0.4,0,0.6-0.1l0,0c3-0.4,5.1-2.5,6.7-5.2
		C864.2,164.1,864.5,160,864.2,154.5z M861.4,831c-1.6-2.8-3.7-4.8-6.7-5.2l0,0c-0.2,0-0.4,0-0.6-0.1c-0.5,0-1,0-1.4,0
		c-0.8,0.1-1.5,0.4-2.4,0.7c0.3,0.4,0.4,0.6,0.5,0.6c1.2,0.4,2.5,0.7,2.5,2.3s-0.9,2.6-2.2,3.4c-0.6,0.4-1.3,0.6-2,0.8
		c-0.4,0.1-0.8,0.2-1.2,0.2c-2.2,0.2-3.7-0.7-4.5-2.7c-1.4-3.5,0.6-7.6,4.4-9.1c0.1,0,0.2-0.1,0.4-0.1c0.8-0.3,1.8-0.6,2.8-0.7
		c0.1,0,0.2,0,0.2,0c0.1,0,0.2,0,0.3,0c0.2,0,0.5,0,0.7,0s0.5,0,0.7,0c3.9,0.1,7.2,1.8,9.8,4.8c3.1,3.7,4.9,8,5.3,12.7
		c0.6,5-0.1,11.8-0.7,15.1c-0.1,0.3-0.1,0.6-0.2,0.9c-0.1,0.3-0.2,0.6-0.3,0.8c-0.8,1.5-4.4,2.5-4.4,2.5c0.4-2.3,0.9-4.6,1.3-6.8
		c0.2-1.9,0.3-3.8,0.4-5.5C864.5,840,864.2,835.9,861.4,831z M853.9,848.4c2.1,1.4,2.9,3.4,2.9,5.8c0,1.3-0.7,1.9-2,1.8
		c-2.5,0-4.6-0.8-5.9-3.1c-0.3-0.4-0.6-0.8-1.2-1.6c-0.1,3.8-0.3,7.2-4.6,8c-2.8,0.5-4.3-0.1-5.4-1.9c0.1-0.1,0.1-0.3,0.2-0.3
		c3.5-2.1,4.4-4.2,3.6-8.4c-0.2-0.9-0.5-1.8-0.4-2.7c0-0.6,0.4-1.7,0.7-1.7c2.6-0.1,2.3-4.5,5.5-3.7c1,0.2,2,0.4,3.1,0.5
		c2.9,0.3,5.6,0.1,7-3.2c0.6-1.3,1.4-0.5,1.9,0.2c1.9,2.6,0.6,7.3-2.4,8.4c-1.4,0.5-2.9,0.6-4.6,0.9
		C853,847.8,853.4,848.1,853.9,848.4z M780.9,928.7c-3.8,1.3-7.6,2.9-11.5,3.7c-3.1,0.6-6.5,0.4-9.7-0.2c-3.3-0.6-5.6-3-6.7-6.2
		c-1-2.8-0.8-5.6,1.5-7.8c2.2-2,4.6-3,7.6-2c3.2,1.1,4.8,4.9,2.9,7.7c-0.4-0.6-0.8-1.1-1.1-1.7c-1.4-2-3.7-2.4-5.6-1
		c-1.9,1.4-2.1,3.9-0.4,5.7c1.8,1.9,4.2,2.3,6.6,2.4c5.5,0.3,11.7-1.4,16.4-4.4c-0.9-1.4-1.8-2.7-2.5-4.1c-0.2-0.4,0.4-1.2,0.9-1.9
		c1.1,3,3.7,2.8,5.9,3c2.7,0.2,5.4,0.2,8.1,0c3.9-0.3,7.3,0.6,10.1,3.4c0.5,0.5,1.1,0.8,1.7,1.3c0.4-1.6,0.9-2.8,2.8-2.8
		s3.3,0.8,4.2,2.4c0.6,1,1.1,2,1.6,3.1c1.9-2.4,0.9-7.1-1.8-9.1c-1-0.7-2.1-1.2-3.2-1.9c-1.7-1.1-2.7-2.5-2.9-4.8
		c1-0.1,1.8-0.1,3.2-0.2c-1-0.6-1.6-1-2.1-1.3c-1.9-1-3.5-5.2-2.7-7.1c0.2-0.4,1-0.8,1.3-0.7c1.3,0.5,2.5,1.1,3.7,1.7
		c0.6,0.3,1.1,0.5,1.7,0.7c0.2-0.6,0.6-1.3,0.5-1.9c-0.3-2.3-1.4-4.2-3.4-5.4c-0.9-0.5-1.7-1.1-2.7-1.8c1.9-1.5,3.6-1.3,5.2-0.5
		c2.2,1.1,3.8,2.9,4.3,5.3c0.8,4,1.4,8.1,1.8,12.2c0.5,4.2,0.4,8.5,1,12.7c0.9,6.7,5,11.7,9.4,16.5c1.1,1.2,2.2,2.4,3.3,3.6
		c-0.1,0.2-0.2,0.3-0.3,0.5c-0.8-0.4-1.8-0.7-2.5-1.3c-2.7-2.2-5.1-4.8-7.9-6.9c-4.2-3.1-8.4-6.3-12.9-8.8
		c-6.7-3.7-13.8-2.5-18.5,2.3c-1,1.1-1.8,2.4-2.8,3.7c-2.4-3-1.1-6-0.3-9.6C783.4,928,782.1,928.3,780.9,928.7z M780.6,933.9
		c-4.2,2.1-6.7,5.8-9.1,9.6c-0.7,1.2-1.5,1.7-2.9,1.6c-4.1-0.1-8.1,0-12.2,0c-0.7,0-1.3-0.1-2-0.1c0-0.9,0-1.6,0-2.6
		c1.7,0,3.4,0,5.1,0c2.6,0,5.2-0.1,7.7,0c1.2,0,1.9-0.4,2.5-1.4c2.9-4.4,6.3-8.3,11.4-10.3c0.2-0.1,0.4-0.1,0.8-0.3
		C782.4,932,782.3,933.1,780.6,933.9z M759.7,67.7c3.2-0.5,6.5-0.7,9.7-0.2c3.9,0.7,7.7,2.4,11.5,3.7c1.2,0.4,2.5,0.7,4.1,1.2
		c-0.9-3.5-2.2-6.6,0.3-9.6c1,1.3,1.8,2.6,2.8,3.7c4.7,4.9,11.8,6,18.5,2.3c4.5-2.5,8.7-5.7,12.9-8.8c2.8-2.1,5.3-4.6,7.9-6.9
		c0.7-0.6,1.7-0.9,2.5-1.3c0.1,0.2,0.2,0.3,0.3,0.5c-1.1,1.2-2.2,2.4-3.3,3.6c-4.4,4.8-8.5,9.8-9.4,16.5c-0.5,4.2-0.5,8.4-1,12.7
		c-0.4,4.1-1,8.1-1.8,12.2c-0.5,2.3-2,4.2-4.3,5.3c-1.7,0.8-3.3,1-5.2-0.5c1-0.7,1.8-1.3,2.7-1.8c2.1-1.2,3.1-3.1,3.4-5.4
		c0.1-0.6-0.3-1.2-0.5-1.9c-0.6,0.2-1.2,0.5-1.7,0.7c-1.2,0.6-2.4,1.2-3.7,1.7c-0.3,0.1-1.1-0.3-1.3-0.7c-0.8-1.9,0.9-6.1,2.7-7.1
		c0.6-0.3,1.1-0.7,2.1-1.3c-1.4-0.1-2.3-0.1-3.2-0.2c0.2-2.2,1.2-3.7,2.9-4.8c1-0.6,2.2-1.1,3.2-1.9c2.7-2,3.7-6.7,1.8-9.1
		c-0.6,1.1-1,2.1-1.6,3.1c-0.9,1.6-2.4,2.4-4.2,2.4c-1.8,0-2.3-1.2-2.8-2.8c-0.7,0.5-1.3,0.8-1.7,1.3c-2.9,2.7-6.2,3.7-10.1,3.4
		c-2.7-0.2-5.4-0.2-8.1,0c-2.2,0.2-4.8,0-5.9,3c-0.4-0.7-1.1-1.5-0.9-1.9c0.7-1.4,1.6-2.7,2.5-4.1c-4.7-3-10.9-4.8-16.4-4.4
		c-2.4,0.2-4.8,0.6-6.6,2.4c-1.7,1.8-1.5,4.2,0.4,5.7s4.2,1.1,5.6-1c0.4-0.5,0.7-1.1,1.1-1.7c1.9,2.8,0.3,6.6-2.9,7.7
		c-3,1-5.4,0-7.6-2c-2.4-2.2-2.5-5-1.5-7.8C754.1,70.8,756.4,68.3,759.7,67.7z M754.4,57.6c0-1,0-1.8,0-2.6c0.7,0,1.4-0.1,2-0.1
		c4.1,0,8.1,0.1,12.2,0c1.4,0,2.2,0.5,2.9,1.6c2.4,3.8,5,7.5,9.1,9.6c1.7,0.8,1.8,1.9,1.3,3.4c-0.3-0.1-0.6-0.2-0.8-0.3
		c-5.1-2-8.5-5.9-11.4-10.3c-0.6-1-1.3-1.4-2.5-1.4c-2.6,0.1-5.2,0-7.7,0C757.8,57.6,756.1,57.6,754.4,57.6z M804.5,169.8
		c-3.3-0.6-4.8-3.1-5.8-6c-0.3-0.7,0.1-1.7,0.2-2.5c2.9,1.7,5.4,3.1,8,4.5c1.1,0.6,1.8,0.5,2-1c0.1-0.7,0.4-1.4,0.7-2
		c0.9-1.4,1.8-1.4,2.5,0.1c1,2.2,2.8,3.6,5,3.9c2.3,0.4,4.6,0.2,6.9,0.3c0.8,0,1.7,0.1,2.5,0.2c0.1,0.2,0.1,0.5,0.2,0.7
		c-0.8,0.5-1.5,1.1-2.3,1.5c-3.3,1.4-6.7,2.8-10.1,3.9c-1.8,0.6-3.7,0.8-5.6,1c-1.5,0.2-2.4-0.5-2.2-2.2
		C806.9,170.7,806,170.1,804.5,169.8z M806.6,827.7c-0.2-1.6,0.7-2.3,2.2-2.2c1.9,0.2,3.8,0.4,5.6,1c3.4,1.2,6.8,2.6,10.1,3.9
		c0.8,0.3,1.6,1,2.3,1.5c-0.1,0.2-0.1,0.5-0.2,0.7c-0.8,0.1-1.7,0.2-2.5,0.2c-2.3,0.1-4.7-0.1-6.9,0.3c-2.2,0.4-4,1.8-5,3.9
		c-0.7,1.5-1.6,1.5-2.5,0.1c-0.4-0.6-0.6-1.3-0.7-2c-0.2-1.5-0.9-1.6-2-1c-2.5,1.4-5.1,2.9-8,4.5c-0.1-0.8-0.5-1.8-0.2-2.5
		c1-2.9,2.5-5.4,5.8-6C806,829.9,806.9,829.3,806.6,827.7z M815.4,850.9c-1.5-0.1-2.4-1.5-2.6-3.9c-0.4-4.5,2.1-8.5,6.4-9.7
		c3.8-1.1,7.6-1,11.5,0c0.2,0.1,0.5,0.2,0.7,0.3c0.1,0.1,0.2,0.2,0.4,0.4c-0.7,0.1-1.4,0.2-2,0.3c-6.2,0.3-9.8,3.3-11.3,9.3
		C817.7,850.1,816.9,851,815.4,850.9z M830.7,832.9c-2.6-2.3-5.1-4.8-7.6-7.2c-3.8-3.6-8.3-5.3-13.5-5.4c-2.3-0.1-4.1-1.2-5.8-3.2
		c1.1-0.7,2.1-1.3,3.1-1.9c0.4-0.3,0.8-0.7,1.2-1c-0.4-0.3-0.7-0.8-1.2-1c-4.1-1.9-5.6-4.6-4.5-9.1c0.2-0.9,1.2-2.1,1.9-2.2
		c2.3-0.1,4.7-0.2,6.8,0.5c1.1,0.3,1.7,2.2,2.6,3.3c0.4,0.5,0.8,1.1,1.3,1.6c0.4-0.5,0.8-1,1.1-1.5s0.5-1,0.8-1.4
		c0.7-1,1.4-1.2,2.3,0c1.2,1.5,1.9,3.1,1.9,5c0.2,4.7,1.5,8.9,4.8,12.4c2.6,2.8,5.2,5.5,7.8,8.3c1,1.1,1.9,2.4,2.7,3.7
		c0.3,0.4,0.1,1.4-0.2,1.8c-0.3,0.3-1.3,0.4-1.7,0.1C833.1,834.9,831.9,834,830.7,832.9z M833.4,819.7c0,1.5,0.2,2.9,0.2,4.4
		c0,0.6-0.2,1.3-0.3,2.5c-0.8-0.9-1.4-1.3-1.6-1.9c-1.8-4.7-3.5-9.5-5.2-14.3c-0.2-0.7-0.1-1.5-0.2-2.2c-0.1-1.5,0.5-2.4,2.1-2.2
		c1.6,0.2,2.3-0.4,2.6-2.1c0.6-3.4,3.2-5,6.2-5.9c0.7-0.2,1.6,0.2,2.3,0.3c-1.6,2.8-3,5.2-4.4,7.7c-0.7,1.2-0.6,2.1,1,2.3
		c0.6,0.1,1.2,0.3,1.7,0.6c0.5,0.4,1.1,0.9,1.2,1.5c0.1,0.3-0.7,0.9-1.2,1.1C834.5,813.3,833.4,816.2,833.4,819.7z M849.1,812.3
		c1.3,0.4,2.4,1.1,2.5,2.6s-1.1,2.1-2.3,2.4c-1.4,0.4-2.9,0.7-4.2,1.3c-3.9,2-5.8,5.4-6.2,9.8c-0.1,0.8-0.1,1.6-0.1,2.4
		c-0.2,0-0.4,0.1-0.5,0.1c-0.2-1-0.7-1.9-0.7-2.9c0.1-3.2-0.1-6.5,0.6-9.6C839.2,813.6,844.4,811,849.1,812.3z M838.1,181.7
		c-0.7-3.1-0.5-6.4-0.6-9.6c0-1,0.4-1.9,0.7-2.9c0.2,0,0.4,0.1,0.5,0.1c0,0.8,0.1,1.6,0.1,2.4c0.4,4.3,2.3,7.7,6.2,9.8
		c1.3,0.7,2.8,0.9,4.2,1.3c1.2,0.4,2.4,0.9,2.3,2.4s-1.1,2.2-2.5,2.6C844.4,189,839.2,186.4,838.1,181.7z M839.4,836.7
		c0.7,0,1.7,1.1,1.9,1.9c0.3,1.3-0.7,2.2-1.9,2.1c-0.9-0.1-1.6-1-2.4-1.6c0-0.3,0-0.6,0-0.9C837.8,837.6,838.6,836.6,839.4,836.7z
		 M839.4,159.3c1.2-0.1,2.2,0.8,1.9,2.1c-0.2,0.8-1.2,1.9-1.9,1.9c-0.8,0-1.6-1-2.4-1.5c0-0.3,0-0.6,0-0.9
		C837.8,160.4,838.5,159.4,839.4,159.3z M837.7,188.5c0.5,0.3,1.3,0.9,1.2,1.1c-0.1,0.6-0.7,1.1-1.2,1.5c-0.5,0.3-1.1,0.5-1.7,0.6
		c-1.7,0.2-1.7,1.1-1,2.3c1.4,2.5,2.8,4.9,4.4,7.7c-0.7,0.1-1.6,0.5-2.3,0.3c-3-0.9-5.5-2.5-6.2-5.9c-0.3-1.6-1-2.2-2.6-2.1
		c-1.6,0.2-2.2-0.8-2.1-2.2c0-0.7-0.1-1.5,0.2-2.2c1.7-4.8,3.4-9.6,5.2-14.3c0.2-0.6,0.9-1,1.6-1.9c0.2,1.2,0.3,1.8,0.3,2.5
		c0,1.5-0.2,2.9-0.2,4.4C833.4,183.8,834.5,186.7,837.7,188.5z M836.4,166.2c-0.8,1.3-1.7,2.6-2.7,3.7c-2.5,2.8-5.2,5.6-7.8,8.3
		c-3.3,3.5-4.7,7.7-4.8,12.4c-0.1,1.9-0.7,3.5-1.9,5c-0.9,1.2-1.6,1-2.3,0c-0.3-0.4-0.5-1-0.8-1.4c-0.3-0.5-0.7-1-1.1-1.5
		c-0.4,0.5-0.9,1.1-1.3,1.6c-0.9,1.1-1.5,3-2.6,3.3c-2.1,0.6-4.5,0.6-6.8,0.5c-0.7,0-1.7-1.3-1.9-2.2c-1.1-4.5,0.3-7.2,4.5-9.1
		c0.5-0.2,0.8-0.7,1.2-1c-0.4-0.3-0.7-0.8-1.2-1c-1-0.6-2-1.2-3.1-1.9c1.8-2,3.5-3.1,5.8-3.2c5.2-0.1,9.7-1.8,13.5-5.4
		c2.5-2.4,5-4.8,7.6-7.2c1.1-1,2.4-1.9,3.7-2.7c0.4-0.3,1.4-0.2,1.7,0.1C836.5,164.8,836.6,165.8,836.4,166.2z M831.3,162.5
		c-0.2,0.1-0.4,0.2-0.7,0.3c-3.8,0.9-7.7,1.1-11.5,0c-4.3-1.3-6.9-5.2-6.4-9.7c0.2-2.4,1.1-3.8,2.6-3.9c1.5-0.1,2.3,0.8,3,3.4
		c1.6,6.1,5.2,9,11.3,9.3c0.6,0,1.3,0.2,2,0.3C831.5,162.3,831.4,162.5,831.3,162.5z M214.3,42.6c-0.3-1.1-1.2-2.1-1.8-3.2
		c-0.2,0.1-0.4,0.1-0.6,0.2c-0.1,0.4-0.2,0.8-0.2,1.1c0.3,2.8-0.7,5-3.3,6.2c-2.9,1.3-5.8,1.3-8.3-0.8c-3.7-2.9-3.8-9.1-0.2-12.6
		c6.1-5.9,17.4-3.8,20.9,4c0.6,1.2,1.2,1.6,2.5,1.6c2.5-0.1,4.9-0.1,7.4,0c1.1,0,1.7-0.3,2.1-1.5c1.5-4.3,4-7.7,8.8-8.8
		c0.9-0.2,1.9-0.3,2.9-0.3c22.5,0,488.7,0,511,0c1,0,2,0,2.9,0.3c4.8,1.1,7.3,4.5,8.8,8.8c0.4,1.1,0.9,1.5,2.1,1.5
		c2.5-0.1,4.9-0.1,7.4,0c1.2,0,1.9-0.3,2.5-1.6c3.5-7.8,14.8-9.9,20.9-4c3.6,3.5,3.5,9.7-0.2,12.6c-2.6,2-5.5,2.1-8.3,0.8
		c-2.6-1.2-3.6-3.3-3.3-6.2c0-0.4-0.1-0.8-0.2-1.1c-0.2-0.1-0.4-0.1-0.6-0.2c-0.6,1-1.5,2-1.8,3.2c-1.2,4.1,0.2,8,4,10.8
		c9.8,7.1,23.2,7.4,32.2-0.2c0.7-0.6,1.4-1,2.2-1.5c0.2,0.1,0.3,0.3,0.5,0.4c-0.5,0.8-0.9,1.6-1.5,2.3c-7,7.8-15.6,11.2-26,9
		c-8.9-1.8-16.3-5.8-19.2-15.4c-0.3-1.2-1.1-1.5-2.2-1.5c-4.3,0-8.6,0-13.1,0c-0.1-0.9-0.2-1.5-0.3-2.1c-0.9-6.9-2.4-8.2-9.4-8.2
		c-21.8,0-484.2,0-506,0c-7,0-8.5,1.3-9.4,8.2c-0.1,0.6-0.2,1.2-0.3,2.1c-4.5,0-8.8,0-13.1,0c-1.1,0-1.8,0.3-2.2,1.5
		c-2.8,9.6-10.3,13.5-19.2,15.4c-10.4,2.1-19-1.2-26-9c-0.6-0.7-1-1.5-1.5-2.3c0.2-0.1,0.3-0.3,0.5-0.4c0.7,0.5,1.5,0.9,2.2,1.5
		c8.9,7.6,22.4,7.3,32.2,0.2C214,50.6,215.5,46.6,214.3,42.6z M257.6,937.4c-3.6-0.4-6.7,2-7.1,5.6c-0.4,2.6,0.4,4.9,2.2,6.8
		c3,3.3,6.9,4.3,11.2,4.3c16.6,0,456.9,0,472.4,0c4.3,0,8.2-1,11.2-4.3c1.7-1.9,2.5-4.1,2.2-6.8c-0.5-3.6-3.5-6-7.1-5.6
		c-0.6,0.1-1.1,0.5-2,0.8c0.6,0.5,0.9,1,1.2,1c1.9,0.3,2.6,1.4,2.6,3.2c0,1.9-0.8,3.4-2.6,4.3c-3.8,1.7-7.2-0.2-7.6-4.3
		c-0.5-4.2,1.5-6.8,5.7-7.6c7.1-1.4,12.5,2.1,12.8,8.5c0.2,4.9-2,8.6-6.2,11.2c-3.5,2.1-7.5,2.5-11.5,2.5c-15,0-453.1,0-469.3,0
		c-4,0-8-0.4-11.5-2.5c-4.2-2.5-6.4-6.3-6.2-11.2c0.3-6.4,5.7-9.9,12.8-8.5c4.2,0.8,6.1,3.4,5.7,7.6c-0.4,4.1-3.9,6-7.6,4.3
		c-1.9-0.8-2.6-2.4-2.6-4.3c0-1.8,0.7-2.9,2.6-3.2c0.3-0.1,0.6-0.5,1.2-1C258.7,937.9,258.2,937.5,257.6,937.4z M752.4,56.7
		c-0.3,6.4-5.7,9.9-12.8,8.5c-4.2-0.8-6.1-3.4-5.7-7.6c0.4-4.1,3.9-6,7.6-4.3c1.9,0.8,2.6,2.4,2.6,4.3c0,1.8-0.7,2.9-2.6,3.2
		c-0.3,0.1-0.6,0.5-1.2,1c0.8,0.3,1.4,0.7,2,0.8c3.6,0.4,6.7-2,7.1-5.6c0.4-2.6-0.4-4.9-2.2-6.8c-3-3.3-6.9-4.3-11.2-4.3
		c-14.9,0-456.1,0-472.4,0c-4.3,0-8.2,1-11.2,4.3c-1.7,1.9-2.5,4.1-2.2,6.8c0.5,3.6,3.5,6,7.1,5.6c0.6-0.1,1.1-0.5,2-0.8
		c-0.6-0.5-0.9-1-1.2-1c-1.9-0.3-2.6-1.4-2.6-3.2c0-1.9,0.8-3.4,2.6-4.3c3.8-1.7,7.2,0.2,7.6,4.3c0.5,4.2-1.5,6.8-5.7,7.6
		c-7.1,1.4-12.5-2.1-12.8-8.5c-0.2-4.9,2-8.6,6.2-11.2c3.5-2.1,7.5-2.5,11.5-2.5c15.9,0,454.8,0,469.3,0c4,0,8,0.4,11.5,2.5
		C750.3,48,752.6,51.8,752.4,56.7z M240.3,932.3c-3.2,0.5-6.5,0.7-9.7,0.2c-3.9-0.7-7.7-2.4-11.5-3.7c-1.2-0.4-2.5-0.7-4.1-1.2
		c0.9,3.5,2.2,6.6-0.3,9.6c-1-1.3-1.8-2.6-2.8-3.7c-4.7-4.9-11.8-6-18.5-2.3c-4.5,2.5-8.7,5.7-12.9,8.8c-2.8,2.1-5.3,4.6-7.9,6.9
		c-0.7,0.6-1.7,0.9-2.5,1.3c-0.1-0.2-0.2-0.3-0.3-0.5c1.1-1.2,2.2-2.4,3.3-3.6c4.4-4.8,8.5-9.8,9.4-16.5c0.5-4.2,0.5-8.4,1-12.7
		c0.4-4.1,1-8.1,1.8-12.2c0.5-2.3,2-4.2,4.3-5.3c1.7-0.8,3.3-1,5.2,0.5c-1,0.7-1.8,1.3-2.7,1.8c-2.1,1.2-3.1,3.1-3.4,5.4
		c-0.1,0.6,0.3,1.2,0.5,1.9c0.6-0.2,1.2-0.5,1.7-0.7c1.2-0.6,2.4-1.2,3.7-1.7c0.3-0.1,1.1,0.3,1.3,0.7c0.8,1.9-0.9,6.1-2.7,7.1
		c-0.6,0.3-1.1,0.7-2.1,1.3c1.4,0.1,2.3,0.1,3.2,0.2c-0.2,2.2-1.2,3.7-2.9,4.8c-1,0.6-2.2,1.1-3.2,1.9c-2.7,2-3.7,6.7-1.8,9.1
		c0.6-1.1,1-2.1,1.6-3.1c0.9-1.6,2.4-2.4,4.2-2.4c1.8,0,2.3,1.2,2.8,2.8c0.7-0.5,1.3-0.8,1.7-1.3c2.9-2.7,6.2-3.7,10.1-3.4
		c2.7,0.2,5.4,0.2,8.1,0c2.2-0.2,4.8,0,5.9-3c0.4,0.7,1.1,1.5,0.9,1.9c-0.7,1.4-1.6,2.7-2.5,4.1c4.7,3,10.9,4.8,16.4,4.4
		c2.4-0.2,4.8-0.6,6.6-2.4c1.7-1.8,1.5-4.2-0.4-5.7s-4.2-1.1-5.6,1c-0.4,0.5-0.7,1.1-1.1,1.7c-1.9-2.8-0.3-6.6,2.9-7.7
		c3-1,5.4,0,7.6,2c2.4,2.2,2.5,5,1.5,7.8C245.9,929.2,243.6,931.7,240.3,932.3z M245.6,942.4c0,1,0,1.8,0,2.6c-0.7,0-1.4,0.1-2,0.1
		c-4.1,0-8.1-0.1-12.2,0c-1.4,0-2.2-0.5-2.9-1.6c-2.4-3.8-5-7.5-9.1-9.6c-1.7-0.8-1.8-1.9-1.3-3.4c0.3,0.1,0.6,0.2,0.8,0.3
		c5.1,2,8.5,5.9,11.4,10.3c0.6,1,1.3,1.4,2.5,1.4c2.6-0.1,5.2,0,7.7,0C242.2,942.4,243.9,942.4,245.6,942.4z M143,846.4
		c-3-1.1-4.3-5.8-2.4-8.4c0.5-0.7,1.4-1.5,1.9-0.2c1.4,3.3,4.1,3.5,7,3.2c1-0.1,2.1-0.3,3.1-0.5c3.2-0.8,2.8,3.6,5.5,3.7
		c0.3,0,0.7,1.1,0.7,1.7c0,0.9-0.3,1.8-0.4,2.7c-0.8,4.2,0.1,6.3,3.6,8.4c0.1,0.1,0.1,0.2,0.2,0.3c-1.1,1.9-2.6,2.4-5.4,1.9
		c-4.3-0.8-4.5-4.2-4.6-8c-0.6,0.8-0.9,1.2-1.2,1.6c-1.3,2.3-3.4,3.1-5.9,3.1c-1.3,0-2-0.5-2-1.8c0-2.4,0.8-4.4,2.9-5.8
		c0.5-0.3,1-0.6,1.6-1.1C145.9,847,144.4,846.9,143,846.4z M135.8,845.5c0.1,1.7,0.2,3.6,0.4,5.5c0.4,2.2,0.8,4.5,1.3,6.8
		c0,0-3.6-0.9-4.4-2.5c-0.1-0.2-0.2-0.4-0.3-0.8c-0.1-0.3-0.2-0.6-0.2-0.9c-0.7-3.2-1.3-10-0.7-15.1c0.4-4.7,2.1-9,5.3-12.7
		c2.6-3.1,5.9-4.7,9.8-4.8c0.2,0,0.5,0,0.7,0s0.5,0,0.7,0c0.1,0,0.2,0,0.3,0c0.1,0,0.2,0,0.2,0c1,0.1,2,0.3,2.8,0.7
		c0.1,0,0.2,0.1,0.4,0.1c3.8,1.4,5.8,5.5,4.4,9.1c-0.8,2.1-2.2,3-4.5,2.7c-0.4,0-0.8-0.1-1.2-0.2c-0.7-0.2-1.4-0.4-2-0.8
		c-1.3-0.8-2.2-1.8-2.2-3.4c0-1.6,1.3-1.9,2.5-2.3c0.1,0,0.1-0.2,0.5-0.6c-0.9-0.3-1.6-0.6-2.4-0.7c-0.5-0.1-1-0.1-1.4,0
		c-0.2,0-0.4,0-0.6,0.1l0,0c-3,0.4-5.1,2.5-6.7,5.2C135.7,835.9,135.4,840,135.8,845.5z M138.5,169c1.6,2.8,3.7,4.8,6.7,5.2l0,0
		c0.2,0,0.4,0,0.6,0.1c0.5,0,1,0,1.4,0c0.8-0.1,1.5-0.4,2.4-0.7c-0.3-0.4-0.4-0.6-0.5-0.6c-1.2-0.4-2.5-0.7-2.5-2.3s0.9-2.6,2.2-3.4
		c0.6-0.4,1.3-0.6,2-0.8c0.4-0.1,0.8-0.2,1.2-0.2c2.2-0.2,3.7,0.7,4.5,2.7c1.4,3.5-0.6,7.6-4.4,9.1c-0.1,0-0.2,0.1-0.4,0.1
		c-0.8,0.3-1.8,0.6-2.8,0.7c-0.1,0-0.2,0-0.2,0c-0.1,0-0.2,0-0.3,0c-0.2,0-0.5,0-0.7,0s-0.5,0-0.7,0c-3.9-0.1-7.2-1.8-9.8-4.8
		c-3.1-3.7-4.9-8-5.3-12.7c-0.6-5,0.1-11.8,0.7-15.1c0.1-0.3,0.1-0.6,0.2-0.9c0.1-0.3,0.2-0.6,0.3-0.8c0.8-1.5,4.4-2.5,4.4-2.5
		c-0.4,2.3-0.9,4.6-1.3,6.8c-0.2,1.9-0.3,3.8-0.4,5.5C135.4,160,135.7,164.1,138.5,169z M146,151.6c-2.1-1.4-2.9-3.4-2.9-5.8
		c0-1.3,0.7-1.9,2-1.8c2.5,0,4.6,0.8,5.9,3.1c0.3,0.4,0.6,0.8,1.2,1.6c0.1-3.8,0.3-7.2,4.6-8c2.8-0.5,4.3,0.1,5.4,1.9
		c-0.1,0.1-0.1,0.3-0.2,0.3c-3.5,2.1-4.4,4.2-3.6,8.4c0.2,0.9,0.5,1.8,0.4,2.7c0,0.6-0.4,1.7-0.7,1.7c-2.6,0.1-2.3,4.5-5.5,3.7
		c-1-0.2-2-0.4-3.1-0.5c-2.9-0.3-5.6-0.1-7,3.2c-0.6,1.3-1.4,0.5-1.9-0.2c-1.9-2.6-0.6-7.3,2.4-8.4c1.4-0.5,2.9-0.6,4.6-0.9
		C147,152.2,146.5,151.9,146,151.6z M195.4,830.2c3.3,0.6,4.8,3.1,5.8,6c0.3,0.7-0.1,1.7-0.2,2.5c-2.9-1.7-5.4-3.1-8-4.5
		c-1.1-0.6-1.8-0.5-2,1c-0.1,0.7-0.4,1.4-0.7,2c-0.9,1.4-1.8,1.4-2.5-0.1c-1-2.2-2.8-3.6-5-3.9c-2.3-0.4-4.6-0.2-6.9-0.3
		c-0.8,0-1.7-0.1-2.5-0.2c-0.1-0.2-0.1-0.5-0.2-0.7c0.8-0.5,1.5-1.1,2.3-1.5c3.3-1.4,6.7-2.8,10.1-3.9c1.8-0.6,3.7-0.8,5.6-1
		c1.5-0.2,2.4,0.5,2.2,2.2C193.1,829.3,194,829.9,195.4,830.2z M201.3,163.8c-1,2.9-2.5,5.4-5.8,6c-1.5,0.3-2.3,0.9-2.1,2.5
		c0.2,1.6-0.7,2.3-2.2,2.2c-1.9-0.2-3.8-0.4-5.6-1c-3.4-1.2-6.8-2.6-10.1-3.9c-0.8-0.3-1.6-1-2.3-1.5c0.1-0.2,0.1-0.5,0.2-0.7
		c0.8-0.1,1.7-0.2,2.5-0.2c2.3-0.1,4.7,0.1,6.9-0.3c2.2-0.4,4-1.8,5-3.9c0.7-1.5,1.6-1.5,2.5-0.1c0.4,0.6,0.6,1.3,0.7,2
		c0.2,1.5,0.9,1.6,2,1c2.5-1.4,5.1-2.9,8-4.5C201.1,162.1,201.5,163.1,201.3,163.8z M180.8,162.8c-3.8,1.1-7.6,1-11.5,0
		c-0.2-0.1-0.5-0.2-0.7-0.3c-0.1-0.1-0.2-0.2-0.4-0.4c0.7-0.1,1.4-0.2,2-0.3c6.2-0.3,9.8-3.3,11.3-9.3c0.7-2.6,1.5-3.5,3-3.4
		s2.4,1.5,2.6,3.9C187.7,157.5,185.1,161.5,180.8,162.8z M169.2,167.1c2.6,2.3,5.1,4.8,7.6,7.2c3.8,3.6,8.3,5.3,13.5,5.4
		c2.3,0.1,4.1,1.2,5.8,3.2c-1.1,0.7-2.1,1.3-3.1,1.9c-0.4,0.3-0.8,0.7-1.2,1c0.4,0.3,0.7,0.8,1.2,1c4.1,1.9,5.6,4.6,4.5,9.1
		c-0.2,0.9-1.2,2.1-1.9,2.2c-2.3,0.1-4.7,0.2-6.8-0.5c-1.1-0.3-1.7-2.2-2.6-3.3c-0.4-0.5-0.8-1.1-1.3-1.6c-0.4,0.5-0.8,1-1.1,1.5
		c-0.3,0.5-0.5,1-0.8,1.4c-0.7,1-1.4,1.2-2.3,0c-1.2-1.5-1.9-3.1-1.9-5c-0.2-4.7-1.5-8.9-4.8-12.4c-2.6-2.8-5.2-5.5-7.8-8.3
		c-1-1.1-1.9-2.4-2.7-3.7c-0.3-0.4-0.1-1.4,0.2-1.8c0.3-0.3,1.3-0.4,1.7-0.1C166.8,165.1,168.1,166,169.2,167.1z M166.6,180.3
		c0-1.5-0.2-2.9-0.2-4.4c0-0.6,0.2-1.3,0.3-2.5c0.8,0.9,1.4,1.3,1.6,1.9c1.8,4.7,3.5,9.5,5.2,14.3c0.2,0.7,0.1,1.5,0.2,2.2
		c0.1,1.5-0.5,2.4-2.1,2.2s-2.3,0.4-2.6,2.1c-0.6,3.4-3.2,5-6.2,5.9c-0.7,0.2-1.6-0.2-2.3-0.3c1.6-2.8,3-5.2,4.4-7.7
		c0.7-1.2,0.6-2.1-1-2.3c-0.6-0.1-1.2-0.3-1.7-0.6c-0.5-0.4-1.1-0.9-1.2-1.5c-0.1-0.3,0.7-0.9,1.2-1.1
		C165.4,186.7,166.6,183.8,166.6,180.3z M150.8,187.7c-1.3-0.4-2.4-1.1-2.5-2.6s1.1-2.1,2.3-2.4c1.4-0.4,2.9-0.7,4.2-1.3
		c3.9-2,5.8-5.4,6.2-9.8c0.1-0.8,0.1-1.6,0.1-2.4c0.2,0,0.4-0.1,0.5-0.1c0.2,1,0.7,1.9,0.7,2.9c-0.1,3.2,0.1,6.5-0.6,9.6
		C160.8,186.4,155.5,189,150.8,187.7z M161.9,818.3c0.7,3.1,0.5,6.4,0.6,9.6c0,1-0.4,1.9-0.7,2.9c-0.2,0-0.4-0.1-0.5-0.1
		c0-0.8-0.1-1.6-0.1-2.4c-0.4-4.3-2.3-7.7-6.2-9.8c-1.3-0.7-2.8-0.9-4.2-1.3c-1.2-0.4-2.4-0.9-2.3-2.4s1.1-2.2,2.5-2.6
		C155.5,811,160.8,813.6,161.9,818.3z M160.6,163.3c-0.7,0-1.7-1.1-1.9-1.9c-0.3-1.3,0.7-2.2,1.9-2.1c0.9,0.1,1.6,1,2.4,1.6
		c0,0.3,0,0.6,0,0.9C162.2,162.4,161.4,163.4,160.6,163.3z M160.6,840.7c-1.2,0.1-2.2-0.8-1.9-2.1c0.2-0.8,1.2-1.9,1.9-1.9
		c0.8,0,1.6,1,2.4,1.5c0,0.3,0,0.6,0,0.9C162.2,839.6,161.4,840.6,160.6,840.7z M162.3,811.5c-0.5-0.3-1.3-0.9-1.2-1.1
		c0.1-0.6,0.7-1.1,1.2-1.5c0.5-0.3,1.1-0.5,1.7-0.6c1.7-0.2,1.7-1.1,1-2.3c-1.4-2.5-2.8-4.9-4.4-7.7c0.7-0.1,1.6-0.5,2.3-0.3
		c3,0.9,5.5,2.5,6.2,5.9c0.3,1.6,1,2.2,2.6,2.1c1.6-0.2,2.2,0.8,2.1,2.2c0,0.7,0.1,1.5-0.2,2.2c-1.7,4.8-3.4,9.6-5.2,14.3
		c-0.2,0.6-0.9,1-1.6,1.9c-0.2-1.2-0.3-1.8-0.3-2.5c0-1.5,0.2-2.9,0.2-4.4C166.6,816.2,165.4,813.3,162.3,811.5z M163.6,833.8
		c0.8-1.3,1.7-2.6,2.7-3.7c2.5-2.8,5.2-5.6,7.8-8.3c3.3-3.5,4.7-7.7,4.8-12.4c0.1-1.9,0.7-3.5,1.9-5c0.9-1.2,1.6-1,2.3,0
		c0.3,0.4,0.5,1,0.8,1.4c0.3,0.5,0.7,1,1.1,1.5c0.4-0.5,0.9-1.1,1.3-1.6c0.9-1.1,1.5-3,2.6-3.3c2.1-0.6,4.5-0.6,6.8-0.5
		c0.7,0,1.7,1.3,1.9,2.2c1.1,4.5-0.3,7.2-4.5,9.1c-0.5,0.2-0.8,0.7-1.2,1c0.4,0.3,0.7,0.8,1.2,1c1,0.6,2,1.2,3.1,1.9
		c-1.8,2-3.5,3.1-5.8,3.2c-5.2,0.1-9.7,1.8-13.5,5.4c-2.5,2.4-5,4.8-7.6,7.2c-1.1,1-2.4,1.9-3.7,2.7c-0.4,0.3-1.4,0.2-1.7-0.1
		C163.5,835.2,163.3,834.2,163.6,833.8z M168.6,837.5c0.2-0.1,0.4-0.2,0.7-0.3c3.8-0.9,7.7-1.1,11.5,0c4.3,1.3,6.9,5.2,6.4,9.7
		c-0.2,2.4-1.1,3.8-2.6,3.9c-1.5,0.1-2.3-0.8-3-3.4c-1.6-6.1-5.2-9-11.3-9.3c-0.6,0-1.3-0.2-2-0.3
		C168.5,837.7,168.5,837.5,168.6,837.5z M245.4,81.8c-2.2,2-4.6,3-7.6,2c-3.2-1.1-4.8-4.9-2.9-7.7c0.4,0.6,0.8,1.1,1.1,1.7
		c1.4,2,3.7,2.4,5.6,1c1.9-1.4,2.1-3.9,0.4-5.7c-1.8-1.9-4.2-2.3-6.6-2.4c-5.5-0.3-11.7,1.4-16.4,4.4c0.9,1.4,1.8,2.7,2.5,4.1
		c0.2,0.4-0.4,1.2-0.9,1.9c-1.1-3-3.7-2.8-5.9-3c-2.7-0.2-5.4-0.2-8.1,0c-3.9,0.3-7.3-0.6-10.1-3.4c-0.5-0.5-1.1-0.8-1.7-1.3
		c-0.4,1.6-0.9,2.8-2.8,2.8s-3.3-0.8-4.2-2.4c-0.6-1-1.1-2-1.6-3.1c-1.9,2.4-0.9,7.1,1.8,9.1c1,0.7,2.1,1.2,3.2,1.9
		c1.7,1.1,2.7,2.5,2.9,4.8c-1,0.1-1.8,0.1-3.2,0.2c1,0.6,1.6,1,2.1,1.3c1.9,1,3.5,5.2,2.7,7.1c-0.2,0.4-1,0.8-1.3,0.7
		c-1.3-0.5-2.5-1.1-3.7-1.7c-0.6-0.3-1.1-0.5-1.7-0.7c-0.2,0.6-0.6,1.3-0.5,1.9c0.3,2.3,1.4,4.2,3.4,5.4c0.9,0.5,1.7,1.1,2.7,1.8
		c-1.9,1.5-3.6,1.3-5.2,0.5c-2.2-1.1-3.8-2.9-4.3-5.3c-0.8-4-1.4-8.1-1.8-12.2c-0.5-4.2-0.4-8.5-1-12.7c-0.9-6.7-5-11.7-9.4-16.5
		c-1.1-1.2-2.2-2.4-3.3-3.6c0.1-0.2,0.2-0.3,0.3-0.5c0.8,0.4,1.8,0.7,2.5,1.3c2.7,2.2,5.1,4.8,7.9,6.9c4.2,3.1,8.4,6.3,12.9,8.8
		c6.7,3.7,13.8,2.5,18.5-2.3c1-1.1,1.8-2.4,2.8-3.7c2.4,3,1.1,6,0.3,9.6c1.6-0.5,2.9-0.8,4.1-1.2c3.8-1.3,7.6-2.9,11.5-3.7
		c3.1-0.6,6.5-0.4,9.7,0.2c3.3,0.6,5.6,3,6.7,6.2C248,76.8,247.8,79.6,245.4,81.8z M219.3,66.1c4.2-2.1,6.7-5.8,9.1-9.6
		c0.7-1.2,1.5-1.7,2.9-1.6c4.1,0.1,8.1,0,12.2,0c0.7,0,1.3,0.1,2,0.1c0,0.9,0,1.6,0,2.6c-1.7,0-3.4,0-5.1,0c-2.6,0-5.2,0.1-7.7,0
		c-1.2,0-1.9,0.4-2.5,1.4c-2.9,4.4-6.3,8.3-11.4,10.3c-0.2,0.1-0.4,0.1-0.8,0.3C217.6,68,217.7,66.9,219.3,66.1z M90.5,41.8
		c4.6-6.7,10.6-11.3,18.7-13c2.7-0.6,5.5-1.2,8.2-1.8c2.2,0,4.4,0,6.6,0c0.5,0.1,1.1,0.3,1.6,0.4c4.4,0.9,9,1.6,13.3,2.8
		c6,1.8,11.8,4,17.8,6c5.3,1.8,10.7,3.2,16.4,3.3c4.7,0.1,9.1-0.9,11.7-5.5c0.7-1.2,1.1-2.7,1.7-4.4c0.6,0.8,1.2,1.3,1.5,2
		c1.3,2.7,0.4,5.2-2.1,7.3c-1,0.8-2.2,1.8-2.5,2.9c-0.7,3.1-2.6,4.9-5.6,5.4c-2.3,0.4-4.6,0.4-7,0.6c-0.7,0.1-1.6,0.1-2,0.6
		c-1,1-1.8,2.2-2.7,3.3c-0.2,0.2-0.5,0.3-0.7,0.5c0.6,0.3,1.3,0.5,1.8,0.9c1.6,1.5,3.2,2.9,4.6,4.5c5.8,7,9.1,15.1,9.8,24.2
		c0.7,9.5,0.2,18.9-3.5,27.9c-2.4,5.7-6,10.5-11.2,14.1c-3.3,2.3-7,3.2-11,2c-1-0.3-1.8-1.1-3.1-1.9c1.6-0.4,3-0.4,3.5-1
		c1.1-1.6,2.6-1.9,4.3-2.1c0.9-0.1,1.7-0.6,2.6-1c-2-1.3-3.5-2.3-5.1-3.4c0-0.3,0.1-0.6,0.1-0.8c1.9-0.8,3.7-2,5.6-2.2
		c5.1-0.6,8.8-3.3,11.5-7.4c1-1.6,1.9-3.4,1.6-5.1c-1.5,1.3-3.1,2.7-4.7,4.1c-2,1.8-4.3,2.9-7.1,2.4c-0.9-0.2-1.8-0.8-2.7-1.2
		c0.1-0.2,0.1-0.4,0.2-0.6c0.7,0,1.3-0.1,2-0.1c1.5,0,2.3-0.7,2-2.2c-0.7-4.4,1.3-7.7,4.3-10.7c3.1-3.2,4.7-7,5-11.4
		c0.1-2.1-0.2-4.2-0.3-6.3c-0.2,0-0.4,0-0.6,0c-0.2,1.1-0.6,2.1-0.7,3.2c-0.5,3.2-2,5.9-4.5,8c-0.8,0.6-1.8,0.9-2.7,1.3
		c-0.3-0.9-0.6-1.7-0.9-2.6c-0.1-0.3,0-0.6-0.1-0.9c-0.6-2-0.3-3.7,1.2-5.3c0.4-0.4,0.5-1,0.9-1.8c-0.7,0.1-1.1,0.1-1.4,0.2
		c-2.3,0.3-3-0.6-2.1-2.7c0.4-1.1,0.9-2.1,1.4-3.2c2.1-4.4,1.7-8.8,0.1-13.3c-0.2-0.7-0.8-1.2-1.4-2.1c-0.6,4-1.1,4.6-3.4,4.8
		c-0.1-0.1-0.1-0.2-0.2-0.3c0-0.1,0-0.3,0-0.4c1.4-4.7-0.7-8.4-3.4-11.8c-3.8-4.6-8.6-7.8-14-10.3c-1.6-0.7-3.2-1.3-4.6-1.8
		c-0.6,1-1,2.2-1.6,2.3c-0.7,0.1-1.6-0.6-2.4-1.1c-0.5-0.3-0.8-0.9-1.2-1.4c-1.7-2.2-3.9-3.4-6.6-3.5c-2.7,0-5.5,0.2-8.2,0.4
		c-1,0.1-2,0.6-3,0.9c0,0.2,0,0.3,0,0.5c7.1,0.5,13.2,3.9,19.4,6.9c0.7,0.4,1.7,0.5,2.5,0.4c2.5-0.5,4.7,0.3,6.5,1.9
		c2.4,2.2,4.7,4.5,6.8,6.9c4.3,5.1,8.2,10.4,10,17c0.5,1.9,0.8,3.8-0.2,5.5c-1.5,2.6-1.2,5.1-0.3,7.8c0.6,1.9,1.1,4,1,5.9
		c-0.5,7.4-2.2,14.5-5.6,21c-4,7.7-11.3,20.5-12.7,22.9c-1.4,2.3-6.8,3.1-6.8,3.1c2.5-5,5.3-10.2,8.2-15.1
		c5.4-8.9,8.5-18.4,10.3-28.6c1.3-7.2,1.7-14.3-0.9-21.3c-4.6-12.3-13.3-20.7-25.2-26c-7.4-3.2-14.7-3.4-22.2-0.3
		c-5.3,2.2-9.6,8.3-9.3,13.7c0.1,1.2,0.6,2.3,1,3.4c0.2-0.1,0.5-0.1,0.7-0.2c0-0.6-0.1-1.3-0.1-1.9c-0.2-4.4,2.1-8,6.2-9.8
		c3.8-1.6,7.9-0.8,10.9,2.1c5.4,5.4,4.2,16.2-2.3,20.2c-5.8,3.6-14.4,3.1-19.7-1.2C86.6,62.7,84.8,50.1,90.5,41.8z M131.6,109
		c-1.4-0.1-2.1-0.9-2.1-2.2c0-1.4,1-2,2.3-2.1c1.3,0.2,2.1,1,2,2.4C133.8,108.3,132.9,109.1,131.6,109z M133.6,132.4
		c-0.2,1.3-0.9,2.2-2.2,1.9c-0.8-0.2-1.7-1.2-1.9-2c-0.2-1.2,0.7-2,2-2C132.9,130.3,133.5,131.1,133.6,132.4z M100.9,94.9
		c0.6,0.3,1.4,0.5,2.1,0.7c3.5,0.9,4.6,2.3,4.4,5.9c0,0.9-0.1,1.8-0.2,3c1.2-0.3,2.1-0.6,3-0.9c5.4-1.6,10.8,0.7,12.8,5.5
		c0.9,2.2,0.5,3.1-1.9,3c-2.2-0.2-4.4-0.9-6.6-1.3c-0.6-0.1-1.3,0.1-1.9,0.2c0.5,0.5,0.9,1,1.4,1.3c0.6,0.3,1.3,0.4,2,0.5
		c8.1,1.2,11.1,8.5,12.1,13.7c0.3,1.4-0.7,2.3-2.1,2.2c-7-0.7-12.1-5.3-13.7-12.2c-0.2-0.8-0.3-1.6-0.6-2.3
		c-0.2-0.4-0.8-0.6-1.3-0.9c-0.1,0.5-0.4,1-0.3,1.4c0.5,2.3,1.2,4.5,1.5,6.8c0.2,2.7-0.7,3.2-3.2,2.1c-4.5-2-6.7-7.1-5.3-12.2
		c0.3-1.1,0.6-2.1,1-3.3c-0.5-0.1-0.9-0.2-1.2-0.1c-5.2,0.6-6.4-0.1-7.8-5.1c-0.6-1.9-1.8-3.2-3.5-3c-1,0.1-2.1,0.8-2.7,1.5
		c-0.9,1.3-0.5,2.8,0.6,3.9c1,0.9,2.1,1.7,3.4,2.1c4.1,1.2,7.3,7.7,5.5,11.8c-1.4,3.2-1.3,6.5,1.4,9.2c0.4,0.4,0.4,1.1,0.6,1.6
		c-0.6,0.1-1.3,0.5-1.9,0.4c-4-0.4-6.6-2.8-7.5-6.8c-0.1-0.4,0-0.8-0.2-1.1c-0.3-0.5-0.7-1-1.1-1.5c-0.3,0.5-0.8,0.9-1,1.4
		c-2,5.4-6.4,8.1-11.6,7c-1.4-0.3-2.9-0.7-3.5-2.4c1.7-1.2,3.2-2.2,4.8-3.3c3.6-2.5,4.6-6,4.2-10.1c-0.4-4.5-0.3-9,0.9-13.3
		c1-3.5,2.7-6.2,6.6-7.1c1.1-0.3,2.3-1.7,2.6-2.9c0.9-2.9,2.6-4.8,5.4-5.8c4-1.3,8.1-2,12.3-1.6c0.3,0,0.6,0,0.9,0.1
		c6.8,1.2,11.3-1.9,14.3-7.8c0.7-1.4,1.5-1.4,2.5,0.2c2.7,4.2,0.1,11.2-4.9,13.3c-0.9,0.4-1.9,0.8-2.8,1.1c0,0.2-0.1,0.4-0.1,0.7
		c0.9,0.3,1.8,0.8,2.8,1c3.9,0.9,6.1,3.2,6.7,7.1c0.1,0.7-0.2,1.4-0.2,2.1c-0.7-0.2-1.6-0.2-2.1-0.7c-2.4-2.3-5.2-2.3-8.1-1.4
		c-6.4,1.8-10.2,0-13.1-6.1c-0.5-1.1-1.3-2.1-2.2-2.9c-1.5-1.2-3.7-0.8-4.5,0.7C98.6,91.9,99.2,94.1,100.9,94.9z M108.2,132.4
		c0,1.3-0.8,2-2.7,2.1c-0.4-0.6-1.3-1.3-1.3-2.2c-0.1-1.2,0.8-2,2.1-2C107.5,130.4,108.2,131.3,108.2,132.4z M71.6,143.4
		c3-2.2,6.4-3,10-2.8c0.6,0,1.2,0.1,1.7,0.2c0.1,0.2,0.2,0.4,0.3,0.5c-1.2,1.2-2.3,2.6-3.7,3.6c-4.2,3.2-8.9,4.2-14.1,2.7
		c-10.5-3-17.6-9.5-20.6-20.1c-0.8-2.9-0.6-6.1-0.8-9.1c0-0.5,0.2-1,0.3-1.5c0.2,0,0.3,0,0.5,0c0.2,0.9,0.3,1.8,0.5,2.8
		c0.4,2,0.6,4,1.2,5.9c1.8,5.4,6,7.8,11.3,8.8c3.8,0.8,7.8,1.1,11.2,3.4c0.3,0.2,0.6,0.4,0.9,0.6c0.2,0.3,0.4,0.5,0.6,0.8
		c-1,0.8-2,1.6-3.1,2.2c-1,0.6-2.2,0.8-3.4,1.3C66.2,144.9,69,145.3,71.6,143.4z M63.7,83.1c0.9,0.2,1.6,1,2.3,1.6
		c0,0.3,0,0.6,0,0.9c-0.8,0.5-1.6,1.4-2.4,1.5c-1.2,0.2-2-0.8-2-2.1C61.7,83.8,62.5,82.9,63.7,83.1z M61.5,64.2
		c-0.9-0.1-1.6-1-2.4-1.6c0-0.3,0-0.6,0-0.9c0.8-0.6,1.5-1.5,2.4-1.6c1.2-0.2,2.1,0.7,2.1,2C63.5,63.5,62.6,64.4,61.5,64.2z
		 M62.8,73.9c0-5.7,4.7-10.4,10.5-10.3c5.7,0,10.2,4.6,10.2,10.4c0,5.7-4.6,10.3-10.2,10.4C67.4,84.3,62.8,79.6,62.8,73.9z
		 M133.1,56.6c-1.7-5.9-6.1-9.3-12.9-10c-1.3-0.1-2.6-0.3-3.9-0.5c0-0.2,0-0.4,0-0.6c0.7-0.1,1.3-0.3,2-0.3
		c15.7-0.7,26.6,10.2,29.1,23.4c1.1,5.8-2.1,13-7.3,15.7c-0.6-4.2-0.3-8,2.2-11.4c1.7-2.3,2.1-4.6,0.5-7.2c-0.1-0.2-0.3-0.4-0.7-0.8
		c-1.2,2.4-1.5,5.2-4.4,6.1c-2-2.8-3-5.7-3.5-9C134,60.3,133.6,58.4,133.1,56.6z M86.5,85.2c-0.1,0.9-1,1.6-1.6,2.4
		c-0.3,0-0.6,0-0.9,0c-0.6-0.8-1.5-1.6-1.6-2.4c-0.1-1.2,0.8-2,2.1-2C85.8,83.2,86.7,84.1,86.5,85.2z M86.5,64.4
		c0,1.4-0.8,2.1-2.1,2.2c-1.3-0.2-2.2-0.8-2.2-2.2c0-1.4,0.9-2.2,2.2-2.1C85.6,62.3,86.5,63.1,86.5,64.4z M41.6,57.2
		c0.7-0.1,1.4-0.2,2.4-0.4c-0.6-0.9-1.2-1.7-1.7-2.5c-2-3.2-1.6-7.2,1.2-10c2.8-2.8,6.6-3.1,9.8-1c0.8,0.5,1.6,1,2.5,1.7
		c0.2-1,0.3-1.7,0.4-2.4c0.6-3.1,3.1-5.3,6.2-4.7c1.9,0.3,3.8,1.4,5.6,2.3c0.8,0.4,1.4,1,2.2,1.6c1.1-2.1,2.7-3.3,4.8-2.3
		c3.7,1.7,6.7,4.3,9.3,7.4c0.8,0.9,0.3,1.7-0.9,1.7c-1-0.1-2.1-0.4-3.1-0.7c-9.8-3-20,0-26.6,6.8c-6.9,6.6-9.8,16.8-6.8,26.6
		c0.3,1,0.6,2,0.7,3.1c0.1,1.2-0.7,1.7-1.7,0.9c-3.1-2.6-5.7-5.6-7.4-9.3c-1-2.1,0.1-3.7,2.3-4.8c-0.6-0.8-1.2-1.4-1.6-2.2
		c-0.9-1.8-2-3.7-2.3-5.6C36.3,60.3,38.5,57.8,41.6,57.2z M26.2,118.5c0.6-2.7,1.2-5.5,1.8-8.2c1.6-8.1,6.2-14.1,12.9-18.8
		c8.2-5.8,20.9-4.1,27.2,3.7c4.3,5.3,4.9,13.9,1.3,19.7c-4.1,6.5-14.8,7.8-20.2,2.4c-2.9-2.9-3.8-7-2.2-10.9
		c1.7-4.1,5.3-6.4,9.7-6.2c0.6,0,1.3,0.1,1.9,0.1c0.1-0.2,0.1-0.5,0.2-0.7c-1.1-0.3-2.3-0.9-3.4-0.9c-5.3-0.3-11.4,4-13.6,9.3
		c-3,7.4-2.9,14.8,0.4,22.2c5.3,11.9,13.8,20.5,26.1,25.1c7,2.6,14.1,2.1,21.3,0.8c10.1-1.8,19.7-5.1,28.5-10.4
		c7.2-4.4,14.7-8.5,22.8-11c7-2.2,14.3-3.3,21.6-1.9c5.1,1,9.7,3.2,13,7.4c2.9,3.7,3.7,8,2,12.5c-1.4,3.8-5.5,5.8-9.1,4.5
		c-2.1-0.8-3-2.2-2.8-4.4c0.2-2.7,1.8-4.8,3.7-5.1c1.4-0.2,1.9,0.2,3.3,3.2c0.4-1.2,0.9-1.9,0.9-2.8c0.4-4.3-1.9-7-5.3-8.9
		c-4.9-2.8-10.3-2.9-15.8-2.5c-8.2,0.6-15.6,3.3-22.6,7.6c-7.4,4.6-15.1,8.8-22.8,12.8c-6.5,3.4-13.7,5.2-21,5.7
		c-2,0.1-4-0.3-5.9-0.9c-2.7-0.9-5.2-1.1-7.8,0.4c-1.8,1-3.7,0.7-5.5,0.2c-6.6-1.8-12-5.6-17-9.9c-2.5-2.1-4.8-4.4-7-6.8
		c-1.6-1.8-2.4-3.9-1.9-6.5c0.1-0.8,0-1.8-0.4-2.5c-3.1-6.2-6.5-12.2-7-19.4c-0.2,0-0.3,0-0.5,0c-0.3,1-0.8,2-0.8,3
		c-0.2,2.7-0.4,5.5-0.4,8.2c0,2.7,1.3,4.9,3.5,6.6c0.5,0.4,1.1,0.7,1.4,1.2c0.5,0.7,1.3,1.6,1.1,2.4c-0.1,0.6-1.3,1-2.3,1.6
		c0.5,1.3,1.1,3,1.9,4.5c2.5,5.3,5.7,10.2,10.3,13.9c3.4,2.8,7.2,4.8,11.8,3.4c0.1,0,0.2,0,0.4,0c0.1,0,0.2,0.1,0.3,0.2
		c-0.2,2.3-0.8,2.7-4.8,3.4c0.9,0.6,1.4,1.1,2.1,1.3c4.4,1.5,8.9,1.9,13.3-0.2c1-0.5,2.1-1,3.2-1.4c2.2-0.8,3-0.2,2.8,2.1
		c0,0.3-0.1,0.7-0.2,1.4c0.8-0.4,1.4-0.5,1.8-0.9c1.5-1.5,3.3-1.8,5.3-1.2c0.3,0.1,0.6,0,0.9,0.1c0.9,0.3,1.8,0.6,2.6,0.9
		c-0.4,0.9-0.7,1.9-1.3,2.7c-2,2.5-4.7,4.1-8,4.6c-1.1,0.2-2.1,0.5-3.2,0.7c0,0.2,0,0.4,0,0.6c2.1,0.1,4.2,0.4,6.3,0.3
		c4.4-0.3,8.2-1.9,11.4-5c3-2.9,6.2-4.9,10.7-4.3c1.4,0.2,2.2-0.6,2.1-2c0-0.7,0.1-1.3,0.1-2c0.2-0.1,0.4-0.1,0.6-0.2
		c0.4,0.9,1,1.8,1.2,2.7c0.5,2.7-0.6,5-2.4,7.1c-1.4,1.6-2.8,3.2-4.1,4.7c1.7,0.3,3.5-0.5,5.1-1.6c4.2-2.7,6.8-6.4,7.4-11.5
		c0.2-1.9,1.5-3.7,2.2-5.6c0.3,0,0.6-0.1,0.8-0.1c1,1.6,2.1,3.1,3.4,5.1c0.3-0.9,0.9-1.7,0.9-2.6c0.2-1.7,0.4-3.2,2-4.3
		c0.6-0.4,0.5-1.8,1-3.5c0.8,1.3,1.6,2.1,1.9,3.1c1.2,4,0.3,7.7-2,11c-3.5,5.2-8.4,8.8-14.1,11.2c-8.9,3.8-18.3,4.3-27.9,3.7
		c-9.1-0.6-17.2-3.9-24.2-9.7c-1.7-1.4-3.1-3-4.5-4.6c-0.4-0.5-0.6-1.2-1-1.8c-0.2,0.2-0.3,0.5-0.5,0.7c-1.1,0.9-2.3,1.7-3.3,2.7
		c-0.4,0.4-0.5,1.3-0.6,2c-0.2,2.3-0.2,4.7-0.6,7c-0.6,2.9-2.3,4.8-5.4,5.6c-1.1,0.3-2.1,1.5-2.9,2.5c-2.1,2.5-4.6,3.4-7.3,2.1
		c-0.7-0.3-1.2-0.9-2-1.5c1.7-0.7,3.2-1,4.4-1.7c4.5-2.6,5.5-7,5.4-11.7c-0.1-5.6-1.6-11-3.4-16.3c-2-5.9-4.3-11.8-6.1-17.7
		c-1.3-4.3-2-8.8-2.9-13.3c-0.1-0.5-0.3-1.1-0.4-1.6C26.2,123,26.2,120.8,26.2,118.5z M51.4,787.6c-2.5-2.7-5.7-3.6-9.2-2.7
		c-1.2,0.3-2.4,1.2-3.5,1.8c0.1,0.2,0.2,0.5,0.3,0.7c0.3,0,0.6,0.1,0.9,0.1c2.6-0.3,4.8,0.5,6.1,2.9c1.4,2.6,1.6,5.3,0.1,7.9
		c-3,5.3-11.1,4.9-14.6-0.6c-4.3-6.9-1.6-16,5.7-19.4c0.9-0.4,1.3-0.9,1.2-1.9c-0.1-2.5-0.1-4.9,0-7.4c0.1-1.5-0.4-2.1-1.8-2.6
		c-6-2-8.8-6.1-8.8-12.5c0-20.9,0-485.6,0-507.9c0-6.4,2.8-10.4,8.8-12.5c1.4-0.5,1.9-1.1,1.8-2.6c-0.1-2.5-0.1-4.9,0-7.4
		c0-1-0.3-1.5-1.2-1.9c-7.3-3.4-10-12.5-5.7-19.4c3.5-5.6,11.5-6,14.6-0.6c1.5,2.6,1.3,5.3-0.1,7.9c-1.3,2.4-3.5,3.2-6.1,2.9
		c-0.3,0-0.6,0-0.9,0.1c-0.1,0.2-0.2,0.5-0.3,0.7c1.2,0.6,2.3,1.5,3.5,1.8c3.5,0.8,6.8,0,9.2-2.7c7.5-8.3,9.3-22.9,1.7-32.7
		c-0.7-1-1.5-1.9-2.2-2.9c0.1-0.2,0.2-0.3,0.4-0.5c0.7,0.4,1.6,0.7,2.2,1.2c6.3,5.5,10.1,12.3,9.9,20.9c-0.2,6.2-2.1,11.9-5.5,17.1
		c-2.4,3.7-5.9,5.7-9.9,7c-1.5,0.5-2.1,1.3-2.1,2.9c0.1,4.1,0,8.2,0,12.5c-1.7,0.3-3.2,0.5-4.7,0.9c-3.9,0.8-5.4,2.4-5.4,6.5
		c-0.1,9.9-0.1,19.8-0.1,29.7c0,13.6,0,436.5,0,450.1c0,9.9,0,19.8,0.1,29.7c0,4,1.5,5.6,5.4,6.5c1.5,0.3,3.1,0.6,4.7,0.9
		c0,4.3,0.1,8.4,0,12.5c0,1.6,0.5,2.4,2.1,2.9c4,1.3,7.5,3.3,9.9,7c3.4,5.2,5.4,10.9,5.5,17.1c0.2,8.6-3.6,15.4-9.9,20.9
		c-0.6,0.5-1.4,0.8-2.2,1.2c-0.1-0.2-0.2-0.3-0.4-0.5c0.7-1,1.5-1.9,2.2-2.9C60.8,810.5,58.9,795.9,51.4,787.6z M53.6,251.2
		c-4.2,0.9-7.5,5-8.1,10.1c-0.2,1.7-0.3,3.4-0.3,5.1c0,16.1,0,451.4,0,467.1c0,1.7,0,3.4,0.3,5.1c0.6,5.1,4,9.2,8.1,10.1
		c4.5,1,8.6-2.3,8.3-6.8c0-0.6-0.6-1.2-0.9-1.8c-0.4,0.5-1,0.9-1.1,1.4c-0.3,1.3-1.2,1.8-2.4,1.9c-2.2,0.3-4.1-0.7-5-2.7
		c-1-2.4-0.5-5,1.2-6.4c3.3-2.7,8.9-1.4,10.1,2.7c0.7,2.4,0.7,5.1,0.5,7.6c-0.3,3.1-2.4,5.1-5.2,6.3c-5.1,2.1-11.4-0.5-14.4-5.8
		c-2.1-3.7-2.4-7.7-2.4-11.8c0-16.2,0-450.7,0-466.9c0-4.1,0.3-8.1,2.4-11.8c3.1-5.3,9.3-7.8,14.4-5.8c2.9,1.2,5,3.2,5.2,6.3
		c0.2,2.5,0.2,5.2-0.5,7.6c-1.2,4-6.8,5.3-10.1,2.7c-1.8-1.4-2.3-4-1.2-6.4c0.8-1.9,2.7-3,5-2.7c1.2,0.2,2.1,0.6,2.4,1.9
		c0.1,0.5,0.7,0.9,1.1,1.4c0.3-0.6,0.9-1.2,0.9-1.8C62.2,253.5,58,250.2,53.6,251.2z M54.2,753.8c1,0,1.8,0,2.5,0
		c0.1,0.3,0.1,0.4,0.1,0.5c0,4.1,0.1,8.1,0,12.2c0,1.1,0.4,1.7,1.2,2.4c2.5,2,5.1,3.9,7.2,6.2c1.6,1.7,2.5,3.9,3.9,6
		c-2.1,0.6-3.1,0.1-3.9-1.4c-1-1.7-2.3-3.4-3.8-4.7c-1.9-1.7-4.1-3.1-6.2-4.6c-0.4-0.3-1-0.9-1-1.3C54.2,764,54.2,758.9,54.2,753.8z
		 M58.1,231.1c-0.9,0.7-1.3,1.3-1.2,2.4c0.1,4.1,0,8.1,0,12.2c0,0.1,0,0.2-0.1,0.5c-0.8,0-1.6,0-2.5,0c0-5.1,0-10.2,0-15.3
		c0-0.5,0.6-1,1-1.3c2-1.6,4.3-2.9,6.2-4.6c1.5-1.3,2.8-3,3.8-4.7c0.9-1.5,1.8-2,3.9-1.4c-1.3,2.1-2.3,4.4-3.9,6
		C63.1,227.2,60.6,229.1,58.1,231.1z M53,826.3c1.4-1.8,3-3.4,4.5-5.1c4.4-4.8,8.3-9.9,11.1-15.8c3.2-7.1,2.3-15.5-5.7-20.2
		c-0.2-0.1-0.4-0.4-0.6-0.7c3-2.3,6.1-1,9.1-0.3c0.1-0.2,0.3-0.3,0.4-0.5c-0.8-2.2-1.6-4.5-2.5-6.6c-2-4.9-3.3-9.9-2.9-15.2
		c0.3-3.8,1.9-6.9,5.2-8.8c2.6-1.5,5.4-2,8-0.3c2.5,1.6,3.9,3.9,3.7,7c-0.1,2.9-2.4,5.3-5.3,5.5c-0.9,0.1-1.7-0.3-2.6-0.5
		c0.5-0.8,0.9-1.1,1.3-1.4c1.3-0.9,2.2-2,1.9-3.7c-0.3-1.7-1.3-3.2-3-3.3c-1.3-0.1-2.8,0.6-3.9,1.4c-0.9,0.7-1.4,2.1-1.6,3.2
		c-1.7,7.2,0.7,13.6,4.2,19.9c2.2-3.4,4.1-4,5.6-2c-2.1,0.5-2.6,2.2-2.7,3.9c-0.2,3.4-0.4,6.7-0.2,10.1c0.2,3.4-0.5,6.3-2.7,8.9
		c-0.7,0.8-1.3,1.7-2,2.6c2.8,1,3.6,2.7,2.2,5c-0.6,1-1.8,1.7-2.8,2.5c-0.6,0.5-1.4,0.8-2.1,1.2c0.7,0.6,1.3,0.9,1.9,0.9
		c3.7,0.3,6.4-1.2,8.1-4.5c1.2-2.3,2.7-4.1,5.6-4.4c0.1,1,0.1,1.9,0.2,3c0.4-0.3,0.7-0.4,0.7-0.6c1.1-3.3,3.8-3.8,6.7-4.1
		c1.4-0.1,2,0.4,1.6,1.6c-0.4,1.2-1.1,2.4-1.7,3.5c-0.3,0.5-0.5,1-0.8,1.6c0.6,0.2,1.2,0.6,1.8,0.6c2.3-0.2,4.2-1.3,5.4-3.3
		c0.5-0.9,1.2-1.8,1.8-2.7c1.5,2,1.4,4.2-0.1,6.2c-2,2.7-5,3.9-8.1,4.2c-5.4,0.6-10.9,0.8-16.3,1.1c-6.6,0.4-12.7,2.3-17.7,6.8
		c-2,1.7-3.9,3.5-5.9,5.3c-0.5,0.5-1.2,0.9-1.7,1.3c-0.1-0.1-0.3-0.3-0.4-0.4C51.8,828.2,52.3,827.1,53,826.3z M101.5,195.4
		c-0.7-1-1.3-1.8-1.8-2.7c-1.2-2-3.1-3.1-5.4-3.3c-0.6,0-1.2,0.4-1.8,0.6c0.3,0.5,0.5,1,0.8,1.6c0.6,1.2,1.3,2.3,1.7,3.5
		c0.4,1.2-0.2,1.7-1.6,1.6c-2.9-0.2-5.7-0.7-6.7-4.1c-0.1-0.2-0.3-0.3-0.7-0.6c-0.1,1.1-0.1,2-0.2,3c-2.9-0.3-4.4-2.1-5.6-4.4
		c-1.7-3.3-4.4-4.8-8.1-4.5c-0.6,0.1-1.2,0.3-1.9,0.9c0.7,0.4,1.5,0.7,2.1,1.2c1,0.8,2.2,1.5,2.8,2.5c1.4,2.3,0.6,4-2.2,5
		c0.7,0.9,1.3,1.8,2,2.6c2.2,2.6,2.8,5.5,2.7,8.9c-0.2,3.4,0,6.7,0.2,10.1c0.1,1.8,0.6,3.4,2.7,3.9c-1.5,2.1-3.4,1.4-5.6-2
		c-3.4,6.3-5.9,12.7-4.2,19.9c0.3,1.2,0.8,2.5,1.6,3.2c1,0.8,2.6,1.5,3.9,1.4c1.7-0.1,2.7-1.7,3-3.3s-0.6-2.8-1.9-3.7
		c-0.5-0.3-0.9-0.6-1.3-1.4c0.9-0.2,1.8-0.5,2.6-0.5c2.9,0.2,5.1,2.6,5.3,5.5c0.2,3-1.2,5.4-3.7,7c-2.7,1.7-5.5,1.2-8-0.3
		c-3.4-1.9-4.9-5-5.2-8.8c-0.4-5.4,0.9-10.3,2.9-15.2c0.9-2.2,1.6-4.4,2.5-6.6c-0.1-0.2-0.3-0.3-0.4-0.5c-3,0.7-6.1,2-9.1-0.3
		c0.2-0.3,0.4-0.5,0.6-0.7c7.9-4.7,8.9-13.1,5.7-20.2c-2.7-5.9-6.7-11-11.1-15.8c-1.5-1.7-3.1-3.4-4.5-5.1c-0.7-0.9-1.2-1.9-1.8-2.9
		c0.1-0.1,0.3-0.3,0.4-0.4c0.6,0.4,1.2,0.8,1.7,1.3c2,1.7,3.9,3.5,5.9,5.3c5.1,4.5,11.1,6.4,17.7,6.8c5.4,0.4,10.9,0.6,16.3,1.1
		c3.2,0.3,6.1,1.5,8.1,4.2C102.9,191.1,103,193.3,101.5,195.4z M28,889.7c-0.6-2.8-1.2-5.5-1.8-8.2c0-2.2,0-4.4,0-6.6
		c0.1-0.5,0.3-1.1,0.4-1.6c0.9-4.4,1.6-8.9,2.9-13.3c1.8-6,4.1-11.8,6.1-17.7c1.8-5.3,3.3-10.7,3.4-16.3c0.1-4.7-0.9-9.1-5.4-11.7
		c-1.2-0.7-2.7-1.1-4.4-1.7c0.8-0.6,1.3-1.2,2-1.5c2.7-1.3,5.2-0.4,7.3,2.1c0.8,1,1.8,2.2,2.9,2.5c3.1,0.7,4.9,2.7,5.4,5.6
		c0.4,2.3,0.4,4.6,0.6,7c0.1,0.7,0.1,1.6,0.6,2c1,1,2.2,1.8,3.3,2.7c0.2,0.2,0.3,0.5,0.5,0.7c0.3-0.6,0.5-1.3,1-1.8
		c1.5-1.6,2.9-3.2,4.5-4.6c7-5.8,15.1-9.1,24.2-9.7c9.5-0.7,18.9-0.1,27.9,3.7c5.7,2.4,10.5,6.1,14.1,11.2c2.3,3.4,3.2,7,2,11
		c-0.3,1-1.1,1.8-1.9,3.1c-0.4-1.6-0.4-3-1-3.5c-1.6-1.1-1.9-2.6-2-4.3c-0.1-0.9-0.6-1.7-0.9-2.6c-1.3,2-2.3,3.5-3.4,5.1
		c-0.3,0-0.6-0.1-0.8-0.1c-0.8-1.9-2-3.7-2.2-5.6c-0.6-5.1-3.2-8.8-7.4-11.5c-1.6-1-3.4-1.9-5.1-1.6c1.3,1.5,2.7,3.1,4.1,4.7
		c1.8,2,2.9,4.3,2.4,7.1c-0.2,0.9-0.8,1.8-1.2,2.7c-0.2-0.1-0.4-0.1-0.6-0.2c0-0.7-0.1-1.3-0.1-2c0-1.5-0.7-2.3-2.1-2
		c-4.4,0.6-7.7-1.4-10.7-4.3c-3.1-3.1-7-4.7-11.4-5c-2.1-0.1-4.2,0.2-6.3,0.3c0,0.2,0,0.4,0,0.6c1.1,0.3,2.1,0.6,3.2,0.7
		c3.2,0.5,5.9,2,8,4.6c0.6,0.8,0.9,1.8,1.3,2.7c-0.9,0.3-1.7,0.6-2.6,0.9c-0.3,0.1-0.6,0-0.9,0.1c-2,0.6-3.7,0.3-5.3-1.2
		c-0.4-0.4-1-0.5-1.8-0.9c0.1,0.7,0.1,1.1,0.2,1.4c0.2,2.3-0.6,3-2.8,2.1c-1.1-0.4-2.1-0.9-3.2-1.4c-4.4-2.1-8.8-1.7-13.3-0.2
		c-0.7,0.2-1.2,0.8-2.1,1.3c4,0.7,4.6,1.1,4.8,3.4c-0.1,0.1-0.2,0.1-0.3,0.2c-0.1,0-0.3,0-0.4,0c-4.7-1.4-8.4,0.6-11.8,3.4
		c-4.6,3.7-7.8,8.6-10.3,13.9c-0.7,1.6-1.3,3.2-1.9,4.5c1,0.7,2.2,1,2.3,1.6c0.1,0.7-0.6,1.6-1.1,2.4c-0.3,0.5-0.9,0.8-1.4,1.2
		c-2.2,1.7-3.5,3.9-3.5,6.6c0,2.7,0.2,5.5,0.4,8.2c0.1,1,0.6,2,0.8,3c0.2,0,0.3,0,0.5,0c0.6-7.1,3.9-13.2,7-19.4
		c0.4-0.7,0.5-1.7,0.4-2.5c-0.5-2.5,0.3-4.7,1.9-6.5c2.2-2.4,4.5-4.7,7-6.8c5.1-4.3,10.5-8.2,17-9.9c1.9-0.5,3.8-0.8,5.5,0.2
		c2.6,1.5,5.1,1.2,7.8,0.4c1.9-0.6,4-1.1,5.9-0.9c7.4,0.5,14.5,2.3,21,5.7c7.7,4,15.4,8.2,22.8,12.8c7,4.3,14.4,7,22.6,7.6
		c5.5,0.4,10.9,0.3,15.8-2.5c3.4-1.9,5.8-4.7,5.3-8.9c-0.1-0.8-0.5-1.6-0.9-2.8c-1.3,3-1.9,3.5-3.3,3.2c-2-0.3-3.5-2.4-3.7-5.1
		c-0.2-2.2,0.7-3.7,2.8-4.4c3.6-1.4,7.6,0.6,9.1,4.5c1.7,4.5,0.9,8.8-2,12.5c-3.3,4.2-7.9,6.4-13,7.4c-7.3,1.4-14.6,0.2-21.6-1.9
		c-8.2-2.5-15.6-6.7-22.8-11c-8.9-5.4-18.4-8.6-28.5-10.4c-7.2-1.3-14.3-1.8-21.3,0.8c-12.3,4.6-20.8,13.2-26.1,25.1
		c-3.3,7.3-3.4,14.7-0.4,22.2c2.2,5.4,8.3,9.6,13.6,9.3c1.2-0.1,2.3-0.6,3.4-0.9c-0.1-0.2-0.1-0.5-0.2-0.7c-0.6,0-1.3,0.1-1.9,0.1
		c-4.4,0.1-8-2.2-9.7-6.2c-1.6-3.8-0.8-7.9,2.2-10.9c5.5-5.4,16.2-4.2,20.2,2.4c3.6,5.8,3.1,14.5-1.3,19.7c-6.3,7.8-19,9.5-27.2,3.7
		C34.2,903.8,29.6,897.8,28,889.7z M142.3,927c-2.5-3.4-2.8-7.2-2.2-11.4c5.2,2.7,8.4,9.8,7.3,15.7c-2.5,13.2-13.4,24.1-29.1,23.4
		c-0.7,0-1.3-0.2-2-0.3c0-0.2,0-0.4,0-0.6c1.3-0.2,2.6-0.4,3.9-0.5c6.8-0.7,11.2-4,12.9-10c0.5-1.8,0.9-3.7,1.2-5.6
		c0.4-3.3,1.5-6.3,3.5-9c2.9,0.9,3.2,3.8,4.4,6.1c0.4-0.4,0.6-0.6,0.7-0.8C144.4,931.7,144.1,929.3,142.3,927z M63.5,937.8
		c0,1.3-0.9,2.2-2.1,2c-0.9-0.1-1.6-1-2.4-1.6c0-0.3,0-0.6,0-0.9c0.8-0.6,1.6-1.5,2.4-1.6C62.6,935.6,63.5,936.5,63.5,937.8z
		 M61.6,914.9c0-1.3,0.8-2.2,2-2.1c0.9,0.1,1.6,1,2.4,1.5c0,0.3,0,0.6,0,0.9c-0.8,0.6-1.5,1.4-2.3,1.6
		C62.5,917.1,61.7,916.2,61.6,914.9z M62.8,926.1c0-5.8,4.7-10.4,10.5-10.4c5.7,0,10.2,4.6,10.2,10.4c0,5.8-4.5,10.3-10.2,10.4
		C67.5,936.5,62.8,931.9,62.8,926.1z M67.9,858.6c1.1,0.6,2.1,1.5,3.1,2.2c-0.2,0.3-0.4,0.5-0.6,0.8c-0.3,0.2-0.6,0.4-0.9,0.6
		c-3.4,2.3-7.4,2.6-11.2,3.4c-5.3,1-9.5,3.4-11.3,8.8c-0.6,1.9-0.8,3.9-1.2,5.9c-0.2,0.9-0.3,1.8-0.5,2.8c-0.2,0-0.3,0-0.5,0
		c-0.1-0.5-0.3-1-0.3-1.5c0.2-3.1,0-6.2,0.8-9.1c3-10.6,10.1-17.1,20.6-20.1c5.2-1.5,9.9-0.5,14.1,2.7c1.4,1,2.4,2.4,3.7,3.6
		c-0.1,0.2-0.2,0.4-0.3,0.5c-0.6,0.1-1.2,0.2-1.7,0.2c-3.7,0.2-7-0.6-10-2.8c-2.6-1.9-5.3-1.5-7.1,0.8
		C65.7,857.8,66.9,858,67.9,858.6z M78.2,876.1c-1.5-1.1-3.1-2.2-4.8-3.3c0.7-1.7,2.1-2.1,3.5-2.4c5.1-1,9.5,1.7,11.6,7
		c0.2,0.5,0.7,0.9,1,1.4c0.4-0.5,0.8-1,1.1-1.5c0.2-0.3,0.1-0.7,0.2-1.1c0.8-3.9,3.5-6.3,7.5-6.8c0.6-0.1,1.2,0.3,1.9,0.4
		c-0.2,0.6-0.2,1.3-0.6,1.6c-2.7,2.8-2.7,6-1.4,9.2c1.8,4.2-1.3,10.6-5.5,11.8c-1.2,0.4-2.4,1.2-3.4,2.1c-1.1,1-1.5,2.6-0.6,3.9
		c0.5,0.8,1.7,1.4,2.7,1.5c1.6,0.2,2.9-1.1,3.5-3c1.5-5,2.6-5.7,7.8-5.1c0.3,0,0.7-0.1,1.2-0.1c-0.3-1.2-0.7-2.2-1-3.3
		c-1.4-5.2,0.8-10.2,5.3-12.2c2.5-1.1,3.4-0.6,3.2,2.1c-0.2,2.3-1,4.5-1.5,6.8c-0.1,0.4,0.2,0.9,0.3,1.4c0.4-0.3,1.1-0.5,1.3-0.9
		c0.4-0.7,0.4-1.5,0.6-2.3c1.6-6.8,6.8-11.4,13.7-12.2c1.5-0.2,2.4,0.7,2.1,2.2c-1,5.1-4,12.5-12.1,13.7c-0.7,0.1-1.4,0.2-2,0.5
		s-0.9,0.9-1.4,1.3c0.6,0.1,1.3,0.3,1.9,0.2c2.2-0.4,4.4-1.2,6.6-1.3c2.4-0.2,2.8,0.7,1.9,3c-2,4.8-7.4,7.1-12.8,5.5
		c-0.9-0.3-1.8-0.5-3-0.9c0.1,1.2,0.2,2.1,0.2,3c0.1,3.6-0.9,5-4.4,5.9c-0.7,0.2-1.4,0.4-2.1,0.7c-1.6,0.9-2.2,3.1-1.3,4.6
		c0.8,1.4,3,1.9,4.5,0.7c0.9-0.7,1.7-1.8,2.2-2.9c2.9-6.1,6.6-7.9,13.1-6.1c2.9,0.8,5.7,0.8,8.1-1.4c0.5-0.5,1.4-0.5,2.1-0.7
		c0.1,0.7,0.4,1.4,0.2,2.1c-0.6,3.9-2.8,6.2-6.7,7.1c-1,0.2-1.9,0.7-2.8,1c0,0.2,0.1,0.4,0.1,0.7c0.9,0.4,1.9,0.7,2.8,1.1
		c4.9,2,7.5,9.1,4.9,13.3c-1,1.5-1.7,1.6-2.5,0.2c-3-5.9-7.5-9-14.3-7.8c-0.3,0.1-0.6,0-0.9,0.1c-4.2,0.4-8.3-0.2-12.3-1.6
		c-2.8-0.9-4.5-2.9-5.4-5.8c-0.4-1.2-1.6-2.6-2.6-2.9c-3.9-1-5.6-3.6-6.6-7.1c-1.2-4.4-1.3-8.9-0.9-13.3
		C82.8,882.1,81.7,878.6,78.2,876.1z M104.1,867.7c0.1-0.9,1-1.6,1.3-2.2c1.9,0.1,2.7,0.8,2.7,2.1c0,1.2-0.7,2-1.9,2
		C105,869.7,104,868.9,104.1,867.7z M131.6,891c1.3,0,2.1,0.7,2.2,1.9c0.1,1.3-0.7,2.2-2,2.4c-1.3-0.1-2.3-0.7-2.3-2.1
		C129.5,891.9,130.3,891,131.6,891z M129.6,867.7c0.2-0.8,1.1-1.8,1.9-2c1.2-0.3,2,0.6,2.2,1.9c-0.1,1.3-0.7,2.1-2,2.1
		C130.3,869.7,129.4,868.9,129.6,867.7z M84.3,953.2c-2.6,3.1-5.6,5.7-9.3,7.4c-2.1,1-3.7-0.1-4.8-2.3c-0.8,0.6-1.4,1.2-2.2,1.6
		c-1.8,0.9-3.7,2-5.6,2.3c-3,0.5-5.6-1.6-6.2-4.7c-0.1-0.7-0.2-1.4-0.4-2.4c-0.9,0.6-1.7,1.2-2.5,1.7c-3.2,2-7,1.7-9.8-1
		c-2.8-2.8-3.2-6.8-1.2-10c0.5-0.8,1-1.6,1.7-2.5c-1-0.2-1.7-0.3-2.4-0.4c-3.1-0.6-5.3-3.1-4.7-6.2c0.3-1.9,1.4-3.8,2.3-5.6
		c0.4-0.8,1-1.4,1.6-2.2c-2.1-1.1-3.3-2.7-2.3-4.8c1.7-3.7,4.3-6.7,7.4-9.3c0.9-0.8,1.7-0.3,1.7,0.9c-0.1,1-0.4,2.1-0.7,3.1
		c-3,9.8,0,20,6.8,26.6c6.6,6.9,16.8,9.8,26.6,6.8c1-0.3,2-0.6,3.1-0.7C84.7,951.5,85.1,952.3,84.3,953.2z M84.4,937.7
		c-1.3,0-2.2-0.7-2.2-2.1c0-1.4,0.8-2.1,2.2-2.2c1.3,0.2,2.1,0.9,2.1,2.2S85.6,937.7,84.4,937.7z M84.6,916.8c-1.3,0-2.2-0.8-2.1-2
		c0.1-0.9,1-1.6,1.6-2.4c0.3,0,0.6,0,0.9,0c0.6,0.8,1.5,1.6,1.6,2.4C86.7,915.9,85.8,916.8,84.6,916.8z M188,968.3
		c-0.3,0.6-0.9,1.2-1.5,2c-0.7-1.7-1-3.2-1.7-4.4c-2.6-4.5-7-5.5-11.7-5.5c-5.6,0.1-11,1.5-16.4,3.3c-5.9,2-11.8,4.3-17.8,6
		c-4.3,1.3-8.9,1.9-13.3,2.8c-0.5,0.1-1.1,0.3-1.6,0.4c-2.2,0-4.4,0-6.6,0c-2.7-0.6-5.5-1.2-8.2-1.8c-8.1-1.7-14.1-6.3-18.7-13
		c-5.7-8.3-4-20.9,3.8-27.2c5.3-4.3,13.9-4.8,19.7-1.2c6.5,4.1,7.7,14.8,2.3,20.2c-2.9,2.9-7.1,3.7-10.9,2.1
		c-4.1-1.7-6.4-5.3-6.2-9.8c0-0.6,0.1-1.3,0.1-1.9c-0.2-0.1-0.5-0.1-0.7-0.2c-0.3,1.1-0.9,2.3-1,3.4c-0.3,5.3,3.9,11.5,9.3,13.7
		c7.4,3.1,14.8,2.9,22.2-0.3c11.9-5.3,20.6-13.7,25.2-26c2.6-7,2.2-14.1,0.9-21.3c-1.8-10.1-5-19.7-10.3-28.6
		c-2.9-4.9-5.7-10-8.2-15.1c0,0,5.3,0.7,6.8,3.1c1.4,2.3,8.7,15.1,12.7,22.9c3.4,6.6,5.2,13.7,5.6,21c0.1,2-0.3,4-1,5.9
		c-0.9,2.7-1.2,5.2,0.3,7.8c1,1.8,0.7,3.7,0.2,5.5c-1.8,6.6-5.7,11.9-10,17c-2.1,2.5-4.4,4.7-6.8,6.9c-1.8,1.6-3.9,2.4-6.5,1.9
		c-0.8-0.1-1.8,0-2.5,0.4c-6.2,3-12.3,6.4-19.4,6.9c0,0.2,0,0.3,0,0.5c1,0.3,2,0.8,3,0.9c2.7,0.2,5.5,0.5,8.2,0.4
		c2.7,0,5-1.3,6.6-3.5c0.4-0.5,0.7-1.1,1.2-1.4c0.7-0.5,1.7-1.2,2.4-1.1c0.6,0.1,1,1.3,1.6,2.3c1.3-0.5,3-1.1,4.6-1.8
		c5.4-2.5,10.2-5.6,14-10.3c2.8-3.4,4.8-7.2,3.4-11.8c0-0.1,0-0.2,0-0.4c0-0.1,0.1-0.2,0.2-0.3c2.3,0.2,2.7,0.9,3.4,4.8
		c0.6-0.9,1.1-1.4,1.4-2.1c1.5-4.4,2-8.9-0.1-13.3c-0.5-1.1-1-2.1-1.4-3.2c-0.8-2.2-0.2-3,2.1-2.7c0.3,0,0.7,0.1,1.4,0.2
		c-0.4-0.8-0.5-1.4-0.9-1.8c-1.5-1.5-1.8-3.3-1.2-5.3c0.1-0.3,0-0.6,0.1-0.9c0.3-0.9,0.6-1.8,0.9-2.6c0.9,0.4,1.9,0.7,2.7,1.3
		c2.5,2.1,4,4.7,4.5,8c0.2,1.1,0.5,2.1,0.7,3.2c0.2,0,0.4,0,0.6,0c0.1-2.1,0.4-4.2,0.3-6.3c-0.3-4.4-1.9-8.3-5-11.4
		c-2.9-3-4.9-6.3-4.3-10.7c0.2-1.4-0.6-2.2-2-2.2c-0.7,0-1.3-0.1-2-0.1c-0.1-0.2-0.1-0.4-0.2-0.6c0.9-0.4,1.8-1,2.7-1.2
		c2.7-0.5,5,0.6,7.1,2.4c1.6,1.4,3.2,2.8,4.7,4.1c0.3-1.7-0.5-3.5-1.6-5.1c-2.7-4.2-6.3-6.8-11.5-7.4c-1.9-0.2-3.7-1.5-5.6-2.2
		c0-0.3-0.1-0.6-0.1-0.8c1.6-1,3.1-2.1,5.1-3.4c-0.9-0.3-1.7-0.9-2.6-1c-1.7-0.2-3.2-0.5-4.3-2.1c-0.4-0.6-1.8-0.6-3.5-1
		c1.3-0.8,2.1-1.6,3.1-1.9c4-1.2,7.7-0.3,11,2c5.1,3.6,8.8,8.4,11.2,14.1c3.8,8.9,4.3,18.3,3.5,27.9c-0.7,9.1-4,17.2-9.8,24.2
		c-1.4,1.6-3,3.1-4.6,4.5c-0.5,0.4-1.2,0.6-1.8,0.9c0.2,0.2,0.5,0.3,0.7,0.5c0.9,1.1,1.7,2.3,2.7,3.3c0.4,0.4,1.3,0.5,2,0.6
		c2.3,0.2,4.7,0.2,7,0.6c2.9,0.6,4.8,2.3,5.6,5.4c0.3,1.1,1.5,2.1,2.5,2.9C188.5,963.1,189.3,965.7,188,968.3z M785.7,957.4
		c0.3,1.1,1.2,2.1,1.8,3.2c0.2-0.1,0.4-0.1,0.6-0.2c0.1-0.4,0.2-0.8,0.2-1.1c-0.3-2.8,0.7-5,3.3-6.2c2.9-1.3,5.8-1.3,8.3,0.8
		c3.7,2.9,3.8,9.1,0.2,12.6c-6.1,5.9-17.4,3.8-20.9-4c-0.6-1.2-1.2-1.6-2.5-1.6c-2.5,0.1-4.9,0.1-7.4,0c-1.1,0-1.7,0.3-2.1,1.5
		c-1.5,4.3-4,7.7-8.8,8.8c-0.9,0.2-1.9,0.3-2.9,0.3c-23,0-488.1,0-511,0c-1,0-2,0-2.9-0.3c-4.8-1.1-7.3-4.5-8.8-8.8
		c-0.4-1.1-0.9-1.5-2.1-1.5c-2.5,0.1-4.9,0.1-7.4,0c-1.2,0-1.9,0.3-2.5,1.6c-3.5,7.8-14.8,9.9-20.9,4c-3.6-3.5-3.5-9.7,0.2-12.6
		c2.6-2,5.5-2.1,8.3-0.8c2.6,1.2,3.6,3.3,3.3,6.2c0,0.4,0.1,0.8,0.2,1.1c0.2,0.1,0.4,0.1,0.6,0.2c0.6-1,1.5-2,1.8-3.2
		c1.2-4.1-0.2-8-4-10.8c-9.8-7.1-23.2-7.4-32.2,0.2c-0.7,0.6-1.4,1-2.2,1.5c-0.2-0.1-0.3-0.3-0.5-0.4c0.5-0.8,0.9-1.6,1.5-2.3
		c7-7.8,15.6-11.2,26-9c8.9,1.8,16.3,5.8,19.2,15.4c0.3,1.2,1.1,1.5,2.2,1.5c4.3,0,8.6,0,13.1,0c0.1,0.9,0.2,1.5,0.3,2.1
		c0.9,6.9,2.4,8.2,9.4,8.2c22.1,0,483.9,0,506,0c7,0,8.5-1.3,9.4-8.2c0.1-0.6,0.2-1.2,0.3-2.1c4.5,0,8.8,0,13.1,0
		c1.1,0,1.8-0.3,2.2-1.5c2.8-9.6,10.3-13.5,19.2-15.4c10.4-2.1,19,1.2,26,9c0.6,0.7,1,1.5,1.5,2.3c-0.2,0.1-0.3,0.3-0.5,0.4
		c-0.7-0.5-1.5-0.9-2.2-1.5c-8.9-7.6-22.4-7.3-32.2-0.2C785.9,949.4,784.5,953.4,785.7,957.4z M909.4,958.2
		c-4.6,6.7-10.6,11.3-18.7,13c-2.7,0.6-5.5,1.2-8.2,1.8c-2.2,0-4.4,0-6.6,0c-0.5-0.1-1.1-0.3-1.6-0.4c-4.4-0.9-9-1.6-13.3-2.8
		c-6-1.8-11.8-4-17.8-6c-5.3-1.8-10.7-3.2-16.4-3.3c-4.7-0.1-9.1,0.9-11.7,5.5c-0.7,1.2-1.1,2.7-1.7,4.4c-0.6-0.8-1.2-1.3-1.5-2
		c-1.3-2.7-0.4-5.2,2.1-7.3c1-0.8,2.2-1.8,2.5-2.9c0.7-3.1,2.6-4.9,5.6-5.4c2.3-0.4,4.6-0.4,7-0.6c0.7-0.1,1.6-0.1,2-0.6
		c1-1,1.8-2.2,2.7-3.3c0.2-0.2,0.5-0.3,0.7-0.5c-0.6-0.3-1.3-0.5-1.8-0.9c-1.6-1.5-3.2-2.9-4.6-4.5c-5.8-7-9.1-15.1-9.8-24.2
		c-0.7-9.5-0.2-18.9,3.5-27.9c2.4-5.7,6-10.5,11.2-14.1c3.3-2.3,7-3.2,11-2c1,0.3,1.8,1.1,3.1,1.9c-1.6,0.4-3,0.4-3.5,1
		c-1.1,1.6-2.6,1.9-4.3,2.1c-0.9,0.1-1.7,0.6-2.6,1c2,1.3,3.5,2.3,5.1,3.4c0,0.3-0.1,0.6-0.1,0.8c-1.9,0.8-3.7,2-5.6,2.2
		c-5.1,0.6-8.8,3.3-11.5,7.4c-1,1.6-1.9,3.4-1.6,5.1c1.5-1.3,3.1-2.7,4.7-4.1c2-1.8,4.3-2.9,7.1-2.4c0.9,0.2,1.8,0.8,2.7,1.2
		c-0.1,0.2-0.1,0.4-0.2,0.6c-0.7,0-1.3,0.1-2,0.1c-1.5,0-2.3,0.7-2,2.2c0.7,4.4-1.3,7.7-4.3,10.7c-3.1,3.2-4.7,7-5,11.4
		c-0.1,2.1,0.2,4.2,0.3,6.3c0.2,0,0.4,0,0.6,0c0.2-1.1,0.6-2.1,0.7-3.2c0.5-3.2,2-5.9,4.5-8c0.8-0.6,1.8-0.9,2.7-1.3
		c0.3,0.9,0.6,1.7,0.9,2.6c0.1,0.3,0,0.6,0.1,0.9c0.6,2,0.3,3.7-1.2,5.3c-0.4,0.4-0.5,1-0.9,1.8c0.7-0.1,1.1-0.1,1.4-0.2
		c2.3-0.3,3,0.6,2.1,2.7c-0.4,1.1-0.9,2.1-1.4,3.2c-2.1,4.4-1.7,8.8-0.1,13.3c0.2,0.7,0.8,1.2,1.4,2.1c0.6-4,1.1-4.6,3.4-4.8
		c0.1,0.1,0.1,0.2,0.2,0.3c0,0.1,0,0.3,0,0.4c-1.4,4.7,0.7,8.4,3.4,11.8c3.8,4.6,8.6,7.8,14,10.3c1.6,0.7,3.2,1.3,4.6,1.8
		c0.6-1,1-2.2,1.6-2.3c0.7-0.1,1.6,0.6,2.4,1.1c0.5,0.3,0.8,0.9,1.2,1.4c1.7,2.2,3.9,3.4,6.6,3.5c2.7,0,5.5-0.2,8.2-0.4
		c1-0.1,2-0.6,3-0.9c0-0.2,0-0.3,0-0.5c-7.1-0.5-13.2-3.9-19.4-6.9c-0.7-0.4-1.7-0.5-2.5-0.4c-2.5,0.5-4.7-0.3-6.5-1.9
		c-2.4-2.2-4.7-4.5-6.8-6.9c-4.3-5.1-8.2-10.4-10-17c-0.5-1.9-0.8-3.8,0.2-5.5c1.5-2.6,1.2-5.1,0.3-7.8c-0.6-1.9-1.1-4-1-5.9
		c0.5-7.4,2.2-14.5,5.6-21c4-7.7,11.3-20.5,12.7-22.9s6.8-3.1,6.8-3.1c-2.5,5-5.3,10.2-8.2,15.1c-5.4,8.9-8.5,18.4-10.3,28.6
		c-1.3,7.2-1.7,14.3,0.9,21.3c4.6,12.3,13.3,20.7,25.2,26c7.4,3.2,14.7,3.4,22.2,0.3c5.3-2.2,9.6-8.3,9.3-13.7
		c-0.1-1.2-0.6-2.3-1-3.4c-0.2,0.1-0.5,0.1-0.7,0.2c0,0.6,0.1,1.3,0.1,1.9c0.2,4.4-2.1,8-6.2,9.8c-3.8,1.6-7.9,0.8-10.9-2.1
		c-5.4-5.4-4.2-16.2,2.3-20.2c5.8-3.6,14.4-3.1,19.7,1.2C913.4,937.3,915.2,949.9,909.4,958.2z M868.3,891c1.4,0.1,2.1,0.9,2.1,2.2
		c0,1.4-1,2-2.3,2.1c-1.3-0.2-2.1-1-2-2.4C866.2,891.7,867,890.9,868.3,891z M866.3,867.6c0.2-1.3,0.9-2.2,2.2-1.9
		c0.8,0.2,1.7,1.2,1.9,2c0.2,1.2-0.7,2-2,2C867,869.7,866.4,868.9,866.3,867.6z M899.1,905.1c-0.6-0.3-1.4-0.5-2.1-0.7
		c-3.5-0.9-4.6-2.3-4.4-5.9c0-0.9,0.1-1.8,0.2-3c-1.2,0.3-2.1,0.6-3,0.9c-5.4,1.6-10.8-0.7-12.8-5.5c-0.9-2.2-0.5-3.1,1.9-3
		c2.2,0.2,4.4,0.9,6.6,1.3c0.6,0.1,1.3-0.1,1.9-0.2c-0.5-0.5-0.9-1-1.4-1.3c-0.6-0.3-1.3-0.4-2-0.5c-8.1-1.2-11.1-8.5-12.1-13.7
		c-0.3-1.4,0.7-2.3,2.1-2.2c7,0.7,12.1,5.3,13.7,12.2c0.2,0.8,0.3,1.6,0.6,2.3c0.2,0.4,0.8,0.6,1.3,0.9c0.1-0.5,0.4-1,0.3-1.4
		c-0.5-2.3-1.2-4.5-1.5-6.8c-0.2-2.7,0.7-3.2,3.2-2.1c4.5,2,6.7,7.1,5.3,12.2c-0.3,1.1-0.6,2.1-1,3.3c0.5,0.1,0.9,0.2,1.2,0.1
		c5.2-0.6,6.4,0.1,7.8,5.1c0.6,1.9,1.8,3.2,3.5,3c1-0.1,2.1-0.8,2.7-1.5c0.9-1.3,0.5-2.8-0.6-3.9c-1-0.9-2.1-1.7-3.4-2.1
		c-4.1-1.2-7.3-7.7-5.5-11.8c1.4-3.2,1.3-6.5-1.4-9.2c-0.4-0.4-0.4-1.1-0.6-1.6c0.6-0.1,1.3-0.5,1.9-0.4c4,0.4,6.6,2.8,7.5,6.8
		c0.1,0.4,0,0.8,0.2,1.1c0.3,0.5,0.7,1,1.1,1.5c0.3-0.5,0.8-0.9,1-1.4c2-5.4,6.4-8.1,11.6-7c1.4,0.3,2.9,0.7,3.5,2.4
		c-1.7,1.2-3.2,2.2-4.8,3.3c-3.6,2.5-4.6,6-4.2,10.1c0.4,4.5,0.3,9-0.9,13.3c-1,3.5-2.7,6.2-6.6,7.1c-1.1,0.3-2.3,1.7-2.6,2.9
		c-0.9,2.9-2.6,4.8-5.4,5.8c-4,1.3-8.1,2-12.3,1.6c-0.3,0-0.6,0-0.9-0.1c-6.8-1.2-11.3,1.9-14.3,7.8c-0.7,1.4-1.5,1.4-2.5-0.2
		c-2.7-4.2-0.1-11.2,4.9-13.3c0.9-0.4,1.9-0.8,2.8-1.1c0-0.2,0.1-0.4,0.1-0.7c-0.9-0.3-1.8-0.8-2.8-1c-3.9-0.9-6.1-3.2-6.7-7.1
		c-0.1-0.7,0.2-1.4,0.2-2.1c0.7,0.2,1.6,0.2,2.1,0.7c2.4,2.3,5.2,2.3,8.1,1.4c6.4-1.8,10.2,0,13.1,6.1c0.5,1.1,1.3,2.1,2.2,2.9
		c1.5,1.2,3.7,0.8,4.5-0.7C901.3,908.1,900.7,905.9,899.1,905.1z M891.7,867.6c0-1.3,0.8-2,2.7-2.1c0.4,0.6,1.3,1.3,1.3,2.2
		c0.1,1.2-0.8,2-2.1,2C892.4,869.6,891.8,868.7,891.7,867.6z M928.4,856.6c-3,2.2-6.4,3-10,2.8c-0.6,0-1.2-0.1-1.7-0.2
		c-0.1-0.2-0.2-0.4-0.3-0.5c1.2-1.2,2.3-2.6,3.7-3.6c4.2-3.2,8.9-4.2,14.1-2.7c10.5,3,17.6,9.5,20.6,20.1c0.8,2.9,0.6,6.1,0.8,9.1
		c0,0.5-0.2,1-0.3,1.5c-0.2,0-0.3,0-0.5,0c-0.2-0.9-0.3-1.8-0.5-2.8c-0.4-2-0.6-4-1.2-5.9c-1.8-5.4-6-7.8-11.3-8.8
		c-3.8-0.8-7.8-1.1-11.2-3.4c-0.3-0.2-0.6-0.4-0.9-0.6c-0.2-0.3-0.4-0.5-0.6-0.8c1-0.8,2-1.6,3.1-2.2c1-0.6,2.2-0.8,3.4-1.3
		C933.7,855.1,931,854.7,928.4,856.6z M936.2,916.9c-0.9-0.2-1.6-1-2.3-1.6c0-0.3,0-0.6,0-0.9c0.8-0.5,1.6-1.4,2.4-1.5
		c1.2-0.2,2,0.8,2,2.1C938.3,916.2,937.5,917.1,936.2,916.9z M938.5,935.8c0.9,0.1,1.6,1,2.4,1.6c0,0.3,0,0.6,0,0.9
		c-0.8,0.6-1.5,1.5-2.4,1.6c-1.2,0.2-2.1-0.7-2.1-2C936.5,936.5,937.3,935.6,938.5,935.8z M937.2,926.1c0,5.7-4.7,10.4-10.5,10.3
		c-5.7,0-10.2-4.6-10.2-10.4c0-5.7,4.6-10.3,10.2-10.4C932.5,915.7,937.2,920.4,937.2,926.1z M866.9,943.4c1.7,5.9,6.1,9.3,12.9,10
		c1.3,0.1,2.6,0.3,3.9,0.5c0,0.2,0,0.4,0,0.6c-0.7,0.1-1.3,0.3-2,0.3c-15.7,0.7-26.6-10.2-29.1-23.4c-1.1-5.8,2.1-13,7.3-15.7
		c0.6,4.2,0.3,8-2.2,11.4c-1.7,2.3-2.1,4.6-0.5,7.2c0.1,0.2,0.3,0.4,0.7,0.8c1.2-2.4,1.5-5.2,4.4-6.1c2,2.8,3,5.7,3.5,9
		C866,939.7,866.4,941.6,866.9,943.4z M913.4,914.8c0.1-0.9,1-1.6,1.6-2.4c0.3,0,0.6,0,0.9,0c0.6,0.8,1.5,1.6,1.6,2.4
		c0.1,1.2-0.8,2-2.1,2C914.1,916.8,913.3,915.9,913.4,914.8z M913.5,935.6c0-1.4,0.8-2.1,2.1-2.2c1.3,0.2,2.2,0.8,2.2,2.2
		s-0.9,2.2-2.2,2.1C914.3,937.7,913.5,936.9,913.5,935.6z M958.4,942.8c-0.7,0.1-1.4,0.2-2.4,0.4c0.6,0.9,1.2,1.7,1.7,2.5
		c2,3.2,1.6,7.2-1.2,10s-6.6,3.1-9.8,1c-0.8-0.5-1.6-1-2.5-1.7c-0.2,1-0.3,1.7-0.4,2.4c-0.6,3.1-3.1,5.3-6.2,4.7
		c-1.9-0.3-3.8-1.4-5.6-2.3c-0.8-0.4-1.4-1-2.2-1.6c-1.1,2.1-2.7,3.3-4.8,2.3c-3.7-1.7-6.7-4.3-9.3-7.4c-0.8-0.9-0.3-1.7,0.9-1.7
		c1,0.1,2.1,0.4,3.1,0.7c9.8,3,20,0,26.6-6.8c6.9-6.6,9.8-16.8,6.8-26.6c-0.3-1-0.6-2-0.7-3.1c-0.1-1.2,0.7-1.7,1.7-0.9
		c3.1,2.6,5.7,5.6,7.4,9.3c1,2.1-0.1,3.7-2.3,4.8c0.6,0.8,1.2,1.4,1.6,2.2c0.9,1.8,2,3.7,2.3,5.6
		C963.7,939.7,961.5,942.2,958.4,942.8z M973.7,881.5c-0.6,2.7-1.2,5.5-1.8,8.2c-1.6,8.1-6.2,14.1-12.9,18.8
		c-8.2,5.8-20.9,4.1-27.2-3.7c-4.3-5.3-4.9-13.9-1.3-19.7c4.1-6.5,14.8-7.8,20.2-2.4c2.9,2.9,3.8,7,2.2,10.9
		c-1.7,4.1-5.3,6.4-9.7,6.2c-0.6,0-1.3-0.1-1.9-0.1c-0.1,0.2-0.1,0.5-0.2,0.7c1.1,0.3,2.3,0.9,3.4,0.9c5.3,0.3,11.4-4,13.6-9.3
		c3-7.4,2.9-14.8-0.4-22.2c-5.3-11.9-13.8-20.5-26.1-25.1c-7-2.6-14.1-2.1-21.3-0.8c-10.1,1.8-19.7,5.1-28.5,10.4
		c-7.2,4.4-14.7,8.5-22.8,11c-7,2.2-14.3,3.3-21.6,1.9c-5.1-1-9.7-3.2-13-7.4c-2.9-3.7-3.7-8-2-12.5c1.4-3.8,5.5-5.8,9.1-4.5
		c2.1,0.8,3,2.2,2.8,4.4c-0.2,2.7-1.8,4.8-3.7,5.1c-1.4,0.2-1.9-0.2-3.3-3.2c-0.4,1.2-0.9,1.9-0.9,2.8c-0.4,4.3,1.9,7,5.3,8.9
		c4.9,2.8,10.3,2.9,15.8,2.5c8.2-0.6,15.6-3.3,22.6-7.6c7.4-4.6,15.1-8.8,22.8-12.8c6.5-3.4,13.7-5.2,21-5.7c2-0.1,4,0.3,5.9,0.9
		c2.7,0.9,5.2,1.1,7.8-0.4c1.8-1,3.7-0.7,5.5-0.2c6.6,1.8,12,5.6,17,9.9c2.5,2.1,4.8,4.4,7,6.8c1.6,1.8,2.4,3.9,1.9,6.5
		c-0.1,0.8,0,1.8,0.4,2.5c3.1,6.2,6.5,12.2,7,19.4c0.2,0,0.3,0,0.5,0c0.3-1,0.8-2,0.8-3c0.2-2.7,0.4-5.5,0.4-8.2s-1.3-4.9-3.5-6.6
		c-0.5-0.4-1.1-0.7-1.4-1.2c-0.5-0.7-1.3-1.6-1.1-2.4c0.1-0.6,1.3-1,2.3-1.6c-0.5-1.3-1.1-3-1.9-4.5c-2.5-5.3-5.7-10.2-10.3-13.9
		c-3.4-2.8-7.2-4.8-11.8-3.4c-0.1,0-0.2,0-0.4,0c-0.1,0-0.2-0.1-0.3-0.2c0.2-2.3,0.8-2.7,4.8-3.4c-0.9-0.6-1.4-1.1-2.1-1.3
		c-4.4-1.5-8.9-1.9-13.3,0.2c-1,0.5-2.1,1-3.2,1.4c-2.2,0.8-3,0.2-2.8-2.1c0-0.3,0.1-0.7,0.2-1.4c-0.8,0.4-1.4,0.5-1.8,0.9
		c-1.5,1.5-3.3,1.8-5.3,1.2c-0.3-0.1-0.6,0-0.9-0.1c-0.9-0.3-1.8-0.6-2.6-0.9c0.4-0.9,0.7-1.9,1.3-2.7c2-2.5,4.7-4.1,8-4.6
		c1.1-0.2,2.1-0.5,3.2-0.7c0-0.2,0-0.4,0-0.6c-2.1-0.1-4.2-0.4-6.3-0.3c-4.4,0.3-8.2,1.9-11.4,5c-3,2.9-6.2,4.9-10.7,4.3
		c-1.4-0.2-2.2,0.6-2.1,2c0,0.7-0.1,1.3-0.1,2c-0.2,0.1-0.4,0.1-0.6,0.2c-0.4-0.9-1-1.8-1.2-2.7c-0.5-2.7,0.6-5,2.4-7.1
		c1.4-1.6,2.8-3.2,4.1-4.7c-1.7-0.3-3.5,0.5-5.1,1.6c-4.2,2.7-6.8,6.4-7.4,11.5c-0.2,1.9-1.5,3.7-2.2,5.6c-0.3,0-0.6,0.1-0.8,0.1
		c-1-1.6-2.1-3.1-3.4-5.1c-0.3,0.9-0.9,1.7-0.9,2.6c-0.2,1.7-0.4,3.2-2,4.3c-0.6,0.4-0.5,1.8-1,3.5c-0.8-1.3-1.6-2.1-1.9-3.1
		c-1.2-4-0.3-7.7,2-11c3.5-5.2,8.4-8.8,14.1-11.2c8.9-3.8,18.3-4.3,27.9-3.7c9.1,0.6,17.2,3.9,24.2,9.7c1.7,1.4,3.1,3,4.5,4.6
		c0.4,0.5,0.6,1.2,1,1.8c0.2-0.2,0.3-0.5,0.5-0.7c1.1-0.9,2.3-1.7,3.3-2.7c0.4-0.4,0.5-1.3,0.6-2c0.2-2.3,0.2-4.7,0.6-7
		c0.6-2.9,2.3-4.8,5.4-5.6c1.1-0.3,2.1-1.5,2.9-2.5c2.1-2.5,4.6-3.4,7.3-2.1c0.7,0.3,1.2,0.9,2,1.5c-1.7,0.7-3.2,1-4.4,1.7
		c-4.5,2.6-5.5,7-5.4,11.7c0.1,5.6,1.6,11,3.4,16.3c2,5.9,4.3,11.8,6.1,17.7c1.3,4.3,2,8.8,2.9,13.3c0.1,0.5,0.3,1.1,0.4,1.6
		C973.7,877,973.7,879.2,973.7,881.5z M948.5,212.4c2.5,2.7,5.7,3.6,9.2,2.7c1.2-0.3,2.4-1.2,3.5-1.8c-0.1-0.2-0.2-0.5-0.3-0.7
		c-0.3,0-0.6-0.1-0.9-0.1c-2.6,0.3-4.8-0.5-6.1-2.9c-1.4-2.6-1.6-5.3-0.1-7.9c3-5.3,11.1-4.9,14.6,0.6c4.3,6.9,1.6,16-5.7,19.4
		c-0.9,0.4-1.3,0.9-1.2,1.9c0.1,2.5,0.1,4.9,0,7.4c-0.1,1.5,0.4,2.1,1.8,2.6c6,2,8.8,6.1,8.8,12.5c0,21.5,0,488.4,0,507.9
		c0,6.4-2.8,10.4-8.8,12.5c-1.4,0.5-1.9,1.1-1.8,2.6c0.1,2.5,0.1,4.9,0,7.4c0,1,0.3,1.5,1.2,1.9c7.3,3.4,10,12.5,5.7,19.4
		c-3.5,5.6-11.5,6-14.6,0.6c-1.5-2.6-1.3-5.3,0.1-7.9c1.3-2.4,3.5-3.2,6.1-2.9c0.3,0,0.6,0,0.9-0.1c0.1-0.2,0.2-0.5,0.3-0.7
		c-1.2-0.6-2.3-1.5-3.5-1.8c-3.5-0.8-6.8,0-9.2,2.7c-7.5,8.3-9.3,22.9-1.7,32.7c0.7,1,1.5,1.9,2.2,2.9c-0.1,0.2-0.2,0.3-0.4,0.5
		c-0.7-0.4-1.6-0.7-2.2-1.2c-6.3-5.5-10.1-12.3-9.9-20.9c0.2-6.2,2.1-11.9,5.5-17.1c2.4-3.7,5.9-5.7,9.9-7c1.5-0.5,2.1-1.3,2.1-2.9
		c-0.1-4.1,0-8.2,0-12.5c1.7-0.3,3.2-0.5,4.7-0.9c3.9-0.8,5.4-2.4,5.4-6.5c0.1-9.9,0.1-19.8,0.1-29.7c0-13.2,0-436.9,0-450.1
		c0-9.9,0-19.8-0.1-29.7c0-4-1.5-5.6-5.4-6.5c-1.5-0.3-3.1-0.6-4.7-0.9c0-4.3-0.1-8.4,0-12.5c0-1.6-0.5-2.4-2.1-2.9
		c-4-1.3-7.5-3.3-9.9-7c-3.4-5.2-5.4-10.9-5.5-17.1c-0.2-8.6,3.6-15.4,9.9-20.9c0.6-0.5,1.4-0.8,2.2-1.2c0.1,0.2,0.2,0.3,0.4,0.5
		c-0.7,1-1.5,1.9-2.2,2.9C939.2,189.5,941.1,204.1,948.5,212.4z M946.4,748.8c4.2-0.9,7.5-5,8.1-10.1c0.2-1.7,0.3-3.4,0.3-5.1
		c0-15.7,0-451.4,0-467.1c0-1.7,0-3.4-0.3-5.1c-0.6-5.1-4-9.2-8.1-10.1c-4.5-1-8.6,2.3-8.3,6.8c0,0.6,0.6,1.2,0.9,1.8
		c0.4-0.5,1-0.9,1.1-1.4c0.3-1.3,1.2-1.8,2.4-1.9c2.2-0.3,4.1,0.7,5,2.7c1,2.4,0.5,5-1.2,6.4c-3.3,2.7-8.9,1.4-10.1-2.7
		c-0.7-2.4-0.7-5.1-0.5-7.6c0.3-3.1,2.4-5.1,5.2-6.3c5.1-2.1,11.4,0.5,14.4,5.8c2.1,3.7,2.4,7.7,2.4,11.8c0,15.7,0,451.2,0,466.9
		c0,4.1-0.3,8.1-2.4,11.8c-3.1,5.3-9.3,7.8-14.4,5.8c-2.9-1.2-5-3.2-5.2-6.3c-0.2-2.5-0.2-5.2,0.5-7.6c1.2-4,6.8-5.3,10.1-2.7
		c1.8,1.4,2.3,4,1.2,6.4c-0.8,1.9-2.7,3-5,2.7c-1.2-0.2-2.1-0.6-2.4-1.9c-0.1-0.5-0.7-0.9-1.1-1.4c-0.3,0.6-0.9,1.2-0.9,1.8
		C937.8,746.5,941.9,749.8,946.4,748.8z M945.8,246.2c-1,0-1.8,0-2.5,0c-0.1-0.3-0.1-0.4-0.1-0.5c0-4.1-0.1-8.1,0-12.2
		c0-1.1-0.4-1.7-1.2-2.4c-2.5-2-5.1-3.9-7.2-6.2c-1.6-1.7-2.5-3.9-3.9-6c2.1-0.6,3.1-0.1,3.9,1.4c1,1.7,2.3,3.4,3.8,4.7
		c1.9,1.7,4.1,3.1,6.2,4.6c0.4,0.3,1,0.9,1,1.3C945.8,236,945.8,241.1,945.8,246.2z M941.9,768.9c0.9-0.7,1.3-1.3,1.2-2.4
		c-0.1-4.1,0-8.1,0-12.2c0-0.1,0-0.2,0.1-0.5c0.8,0,1.6,0,2.5,0c0,5.1,0,10.2,0,15.3c0,0.5-0.6,1-1,1.3c-2,1.6-4.3,2.9-6.2,4.6
		c-1.5,1.3-2.8,3-3.8,4.7c-0.9,1.5-1.8,2-3.9,1.4c1.3-2.1,2.3-4.4,3.9-6C936.8,772.8,939.4,770.9,941.9,768.9z M947,173.7
		c-1.4,1.8-3,3.4-4.5,5.1c-4.4,4.8-8.3,9.9-11.1,15.8c-3.2,7.1-2.3,15.5,5.7,20.2c0.2,0.1,0.4,0.4,0.6,0.7c-3,2.3-6.1,1-9.1,0.3
		c-0.1,0.2-0.3,0.3-0.4,0.5c0.8,2.2,1.6,4.5,2.5,6.6c2,4.9,3.3,9.9,2.9,15.2c-0.3,3.8-1.9,6.9-5.2,8.8c-2.6,1.5-5.4,2-8,0.3
		c-2.5-1.6-3.9-3.9-3.7-7c0.1-2.9,2.4-5.3,5.3-5.5c0.9-0.1,1.7,0.3,2.6,0.5c-0.5,0.8-0.9,1.1-1.3,1.4c-1.3,0.9-2.2,2-1.9,3.7
		c0.3,1.7,1.3,3.2,3,3.3c1.3,0.1,2.8-0.6,3.9-1.4c0.9-0.7,1.4-2.1,1.6-3.2c1.7-7.2-0.7-13.6-4.2-19.9c-2.2,3.4-4.1,4-5.6,2
		c2.1-0.5,2.6-2.2,2.7-3.9c0.2-3.4,0.4-6.7,0.2-10.1c-0.2-3.4,0.5-6.3,2.7-8.9c0.7-0.8,1.3-1.7,2-2.6c-2.8-1-3.6-2.7-2.2-5
		c0.6-1,1.8-1.7,2.8-2.5c0.6-0.5,1.4-0.8,2.1-1.2c-0.7-0.6-1.3-0.9-1.9-0.9c-3.7-0.3-6.4,1.2-8.1,4.5c-1.2,2.3-2.7,4.1-5.6,4.4
		c-0.1-1-0.1-1.9-0.2-3c-0.4,0.3-0.7,0.4-0.7,0.6c-1.1,3.3-3.8,3.8-6.7,4.1c-1.4,0.1-2-0.4-1.6-1.6c0.4-1.2,1.1-2.4,1.7-3.5
		c0.3-0.5,0.5-1,0.8-1.6c-0.6-0.2-1.2-0.6-1.8-0.6c-2.3,0.2-4.2,1.3-5.4,3.3c-0.5,0.9-1.2,1.8-1.8,2.7c-1.5-2-1.4-4.2,0.1-6.2
		c2-2.7,5-3.9,8.1-4.2c5.4-0.6,10.9-0.8,16.3-1.1c6.6-0.4,12.7-2.3,17.7-6.8c2-1.7,3.9-3.5,5.9-5.3c0.5-0.5,1.2-0.9,1.7-1.3
		c0.1,0.1,0.3,0.3,0.4,0.4C948.2,171.8,947.7,172.9,947,173.7z M898.5,804.6c0.7,1,1.3,1.8,1.8,2.7c1.2,2,3.1,3.1,5.4,3.3
		c0.6,0,1.2-0.4,1.8-0.6c-0.3-0.5-0.5-1-0.8-1.6c-0.6-1.2-1.3-2.3-1.7-3.5c-0.4-1.2,0.2-1.7,1.6-1.6c2.9,0.2,5.7,0.7,6.7,4.1
		c0.1,0.2,0.3,0.3,0.7,0.6c0.1-1.1,0.1-2,0.2-3c2.9,0.3,4.4,2.1,5.6,4.4c1.7,3.3,4.4,4.8,8.1,4.5c0.6-0.1,1.2-0.3,1.9-0.9
		c-0.7-0.4-1.5-0.7-2.1-1.2c-1-0.8-2.2-1.5-2.8-2.5c-1.4-2.3-0.6-4,2.2-5c-0.7-0.9-1.3-1.8-2-2.6c-2.2-2.6-2.8-5.5-2.7-8.9
		c0.2-3.4,0-6.7-0.2-10.1c-0.1-1.8-0.6-3.4-2.7-3.9c1.5-2.1,3.4-1.4,5.6,2c3.4-6.3,5.9-12.7,4.2-19.9c-0.3-1.2-0.8-2.5-1.6-3.2
		c-1-0.8-2.6-1.5-3.9-1.4c-1.7,0.1-2.7,1.7-3,3.3c-0.3,1.6,0.6,2.8,1.9,3.7c0.5,0.3,0.9,0.6,1.3,1.4c-0.9,0.2-1.8,0.5-2.6,0.5
		c-2.9-0.2-5.1-2.6-5.3-5.5c-0.2-3,1.2-5.4,3.7-7c2.7-1.7,5.5-1.2,8,0.3c3.4,1.9,4.9,5,5.2,8.8c0.4,5.4-0.9,10.3-2.9,15.2
		c-0.9,2.2-1.6,4.4-2.5,6.6c0.1,0.2,0.3,0.3,0.4,0.5c3-0.7,6.1-2,9.1,0.3c-0.2,0.3-0.4,0.5-0.6,0.7c-7.9,4.7-8.9,13.1-5.7,20.2
		c2.7,5.9,6.7,11,11.1,15.8c1.5,1.7,3.1,3.4,4.5,5.1c0.7,0.9,1.2,1.9,1.8,2.9c-0.1,0.1-0.3,0.3-0.4,0.4c-0.6-0.4-1.2-0.8-1.7-1.3
		c-2-1.7-3.9-3.5-5.9-5.3c-5.1-4.5-11.1-6.4-17.7-6.8c-5.4-0.4-10.9-0.6-16.3-1.1c-3.2-0.3-6.1-1.5-8.1-4.2
		C897.1,808.9,897,806.7,898.5,804.6z M973.7,125.2c-0.1,0.5-0.3,1.1-0.4,1.6c-0.9,4.4-1.6,8.9-2.9,13.3c-1.8,6-4.1,11.8-6.1,17.7
		c-1.8,5.3-3.3,10.7-3.4,16.3c-0.1,4.7,0.9,9.1,5.4,11.7c1.2,0.7,2.7,1.1,4.4,1.7c-0.8,0.6-1.3,1.2-2,1.5c-2.7,1.3-5.2,0.4-7.3-2.1
		c-0.8-1-1.8-2.2-2.9-2.5c-3.1-0.7-4.9-2.7-5.4-5.6c-0.4-2.3-0.4-4.6-0.6-7c-0.1-0.7-0.1-1.6-0.6-2c-1-1-2.2-1.8-3.3-2.7
		c-0.2-0.2-0.3-0.5-0.5-0.7c-0.3,0.6-0.5,1.3-1,1.8c-1.5,1.6-2.9,3.2-4.5,4.6c-7,5.8-15.1,9.1-24.2,9.7c-9.5,0.7-18.9,0.1-27.9-3.7
		c-5.7-2.4-10.5-6.1-14.1-11.2c-2.3-3.4-3.2-7-2-11c0.3-1,1.1-1.8,1.9-3.1c0.4,1.6,0.4,3,1,3.5c1.6,1.1,1.9,2.6,2,4.3
		c0.1,0.9,0.6,1.7,0.9,2.6c1.3-2,2.3-3.5,3.4-5.1c0.3,0,0.6,0.1,0.8,0.1c0.8,1.9,2,3.7,2.2,5.6c0.6,5.1,3.2,8.8,7.4,11.5
		c1.6,1,3.4,1.9,5.1,1.6c-1.3-1.5-2.7-3.1-4.1-4.7c-1.8-2-2.9-4.3-2.4-7.1c0.2-0.9,0.8-1.8,1.2-2.7c0.2,0.1,0.4,0.1,0.6,0.2
		c0,0.7,0.1,1.3,0.1,2c0,1.5,0.7,2.3,2.1,2c4.4-0.6,7.7,1.4,10.7,4.3c3.1,3.1,7,4.7,11.4,5c2.1,0.1,4.2-0.2,6.3-0.3
		c0-0.2,0-0.4,0-0.6c-1.1-0.3-2.1-0.6-3.2-0.7c-3.2-0.5-5.9-2-8-4.6c-0.6-0.8-0.9-1.8-1.3-2.7c0.9-0.3,1.7-0.6,2.6-0.9
		c0.3-0.1,0.6,0,0.9-0.1c2-0.6,3.7-0.3,5.3,1.2c0.4,0.4,1,0.5,1.8,0.9c-0.1-0.7-0.1-1.1-0.2-1.4c-0.2-2.3,0.6-3,2.8-2.1
		c1.1,0.4,2.1,0.9,3.2,1.4c4.4,2.1,8.8,1.7,13.3,0.2c0.7-0.2,1.2-0.8,2.1-1.3c-4-0.7-4.6-1.1-4.8-3.4c0.1-0.1,0.2-0.1,0.3-0.2
		c0.1,0,0.3,0,0.4,0c4.7,1.4,8.4-0.6,11.8-3.4c4.6-3.7,7.8-8.6,10.3-13.9c0.7-1.6,1.3-3.2,1.9-4.5c-1-0.7-2.2-1-2.3-1.6
		c-0.1-0.7,0.6-1.6,1.1-2.4c0.3-0.5,0.9-0.8,1.4-1.2c2.2-1.7,3.5-3.9,3.5-6.6c0-2.7-0.2-5.5-0.4-8.2c-0.1-1-0.6-2-0.8-3
		c-0.2,0-0.3,0-0.5,0c-0.6,7.1-3.9,13.2-7,19.4c-0.4,0.7-0.5,1.7-0.4,2.5c0.5,2.5-0.3,4.7-1.9,6.5c-2.2,2.4-4.5,4.7-7,6.8
		c-5.1,4.3-10.5,8.2-17,9.9c-1.9,0.5-3.8,0.8-5.5-0.2c-2.6-1.5-5.1-1.2-7.8-0.4c-1.9,0.6-4,1.1-5.9,0.9c-7.4-0.5-14.5-2.3-21-5.7
		c-7.7-4-15.4-8.2-22.8-12.8c-7-4.3-14.4-7-22.6-7.6c-5.5-0.4-10.9-0.3-15.8,2.5c-3.4,1.9-5.8,4.7-5.3,8.9c0.1,0.8,0.5,1.6,0.9,2.8
		c1.3-3,1.9-3.5,3.3-3.2c2,0.3,3.5,2.4,3.7,5.1c0.2,2.2-0.7,3.7-2.8,4.4c-3.6,1.4-7.6-0.6-9.1-4.5c-1.7-4.5-0.9-8.8,2-12.5
		c3.3-4.2,7.9-6.4,13-7.4c7.3-1.4,14.6-0.2,21.6,1.9c8.2,2.5,15.6,6.7,22.8,11c8.9,5.4,18.4,8.6,28.5,10.4
		c7.2,1.3,14.3,1.8,21.3-0.8c12.3-4.6,20.8-13.2,26.1-25.1c3.3-7.3,3.4-14.7,0.4-22.2c-2.2-5.4-8.3-9.6-13.6-9.3
		c-1.2,0.1-2.3,0.6-3.4,0.9c0.1,0.2,0.1,0.5,0.2,0.7c0.6,0,1.3-0.1,1.9-0.1c4.4-0.1,8,2.2,9.7,6.2c1.6,3.8,0.8,7.9-2.2,10.9
		c-5.5,5.4-16.2,4.2-20.2-2.4c-3.6-5.8-3.1-14.5,1.3-19.7c6.3-7.8,19-9.5,27.2-3.7c6.7,4.7,11.3,10.7,12.9,18.8
		c0.6,2.8,1.2,5.5,1.8,8.2C973.7,120.8,973.7,123,973.7,125.2z"/>
</g>
</svg>
